<?xml version="1.0" standalone="no"?>
<!DOCTYPE svg PUBLIC "-//W3C//DTD SVG 20010904//EN"
 "http://www.w3.org/TR/2001/REC-SVG-20010904/DTD/svg10.dtd">
<svg version="1.0" xmlns="http://www.w3.org/2000/svg"
 width="1800.000000pt" height="1800.000000pt" viewBox="0 0 1800.000000 1800.000000"
 preserveAspectRatio="xMidYMid meet">
<metadata>
Created by potrace 1.14, written by Peter Selinger 2001-2017
</metadata>
<g transform="translate(0.000000,1800.000000) scale(0.100000,-0.100000)"
fill="#000000" stroke="none">
<path d="M5770 17599 c-24 -11 -47 -24 -50 -28 -3 -5 -14 -10 -25 -12 -11 -3
-20 -9 -20 -14 0 -6 -10 -25 -23 -42 -13 -18 -20 -33 -15 -33 4 0 -3 -9 -17
-20 -14 -10 -25 -22 -26 -27 -1 -14 -39 -73 -47 -73 -5 0 -6 -4 -2 -9 3 -5 -4
-13 -16 -16 -12 -4 -37 -22 -56 -41 -33 -33 -97 -52 -109 -32 -3 5 -14 6 -24
3 -11 -3 -38 4 -62 16 -49 25 -87 32 -104 18 -7 -5 -22 -12 -35 -14 -13 -3
-27 -11 -31 -20 -5 -8 -18 -15 -29 -15 -11 0 -18 -4 -14 -9 3 -5 -5 -17 -17
-25 -12 -9 -19 -16 -14 -16 14 0 -34 -53 -65 -72 -32 -20 -99 -30 -99 -16 0 4
-24 7 -52 6 -29 -1 -60 2 -68 7 -22 14 -148 15 -179 2 -14 -6 -38 -19 -53 -30
-16 -10 -28 -15 -28 -10 0 11 -60 -59 -61 -72 -6 -42 -5 -55 2 -55 5 0 8 -3 8
-7 -4 -19 15 -73 24 -73 6 0 7 -3 4 -6 -3 -4 -2 -14 3 -23 6 -12 0 -24 -25
-48 -18 -17 -36 -29 -41 -25 -4 4 -4 2 -1 -4 3 -6 -3 -21 -14 -32 -10 -12 -19
-24 -19 -27 0 -3 -6 -19 -15 -35 -8 -16 -14 -33 -13 -37 1 -4 -4 -19 -12 -33
-8 -14 -15 -34 -16 -45 -1 -11 -6 -33 -9 -50 -4 -16 -8 -36 -8 -43 0 -7 -33
-30 -74 -50 -40 -20 -82 -44 -93 -54 -10 -10 -23 -18 -29 -18 -11 0 -22 -25
-27 -59 -3 -24 11 -60 26 -71 4 -3 20 -15 36 -28 16 -12 44 -32 62 -43 18 -10
30 -24 27 -29 -3 -5 10 -24 30 -42 19 -18 35 -39 35 -45 0 -7 5 -13 10 -13 6
0 10 -9 10 -19 0 -11 5 -23 10 -26 6 -4 8 -10 5 -15 -3 -5 0 -12 6 -15 5 -4 8
-13 5 -21 -3 -7 -1 -16 4 -19 7 -4 7 -40 0 -40 -5 0 -6 -161 -1 -170 3 -5 6
-16 7 -22 3 -17 25 -38 60 -56 16 -8 42 -30 57 -49 15 -18 44 -54 64 -80 21
-26 43 -47 49 -48 27 -1 38 -34 40 -118 1 -48 2 -87 4 -87 1 0 3 -7 5 -16 5
-27 36 -69 52 -69 8 0 12 -4 9 -9 -5 -7 8 -17 34 -26 3 -1 19 -8 35 -15 17 -7
35 -14 40 -15 6 -1 12 -3 15 -4 6 -3 47 -10 80 -14 14 -1 33 1 44 6 13 6 16 6
12 -2 -4 -6 3 -21 16 -34 13 -13 25 -27 27 -32 11 -28 35 -55 48 -55 8 0 12
-4 8 -9 -3 -5 -1 -12 4 -16 6 -3 7 -15 2 -28 -4 -12 -7 -32 -6 -45 1 -12 -4
-27 -11 -33 -10 -8 -29 5 -81 55 -37 36 -75 68 -85 72 -10 3 -15 10 -12 17 4
7 4 9 -1 5 -4 -4 -13 -4 -19 1 -25 21 -106 29 -171 17 -22 -4 -48 -8 -58 -7
-22 0 -70 48 -62 62 4 5 2 9 -3 9 -5 0 -19 20 -32 44 -36 70 -119 131 -167
121 -28 -6 -87 -15 -110 -17 -7 -1 -13 -4 -13 -7 0 -6 -18 -9 -85 -11 -78 -3
-82 -1 -119 50 -20 28 -36 52 -36 55 0 5 -73 87 -109 122 -13 13 -20 23 -15
23 11 0 -25 22 -81 49 -47 23 -126 20 -167 -5 -14 -9 -46 -9 -68 -1 -8 3 -37
8 -63 12 -39 5 -57 15 -93 50 -24 24 -44 49 -44 54 0 6 -7 11 -15 11 -14 0
-19 12 -16 33 0 4 -4 7 -10 7 -5 0 -7 5 -4 10 3 6 2 10 -4 10 -6 0 -13 11 -17
25 -3 14 -16 32 -27 40 -12 8 -18 15 -14 15 4 0 -8 24 -27 54 -19 30 -32 57
-29 60 4 3 0 6 -8 6 -9 0 -23 16 -32 35 -9 20 -24 38 -32 41 -8 4 -15 11 -15
18 0 7 -18 29 -40 51 -21 21 -37 42 -34 47 3 4 -2 8 -10 8 -8 0 -19 6 -23 13
-14 23 -125 87 -161 93 -25 5 -151 -58 -153 -76 -1 -6 -2 -14 -3 -19 0 -5 -4
-12 -8 -16 -4 -4 -4 -13 -1 -21 3 -8 1 -14 -4 -14 -5 0 -9 -26 -8 -57 1 -32
-1 -62 -4 -68 -3 -5 -6 -26 -7 -45 -6 -98 -7 -99 -52 -76 -41 20 -120 13 -172
-16 -25 -14 -46 -31 -48 -39 -2 -8 -7 -16 -11 -19 -12 -9 -42 -60 -35 -60 4 0
-1 -9 -12 -21 -10 -12 -18 -24 -16 -28 5 -10 -58 -20 -64 -10 -3 5 -14 9 -25
9 -11 0 -43 12 -70 26 -34 17 -72 27 -112 29 -52 3 -67 0 -111 -26 -28 -16
-47 -29 -42 -29 6 0 2 -6 -8 -13 -9 -7 -18 -19 -20 -27 -2 -8 -8 -28 -14 -43
-7 -16 -12 -32 -12 -35 0 -4 -7 -17 -15 -29 l-15 -22 -34 20 c-19 11 -42 22
-52 24 -11 2 -39 10 -64 16 -25 6 -52 13 -60 14 -8 1 -22 5 -30 8 -8 3 -22 6
-30 6 -89 7 -130 7 -130 -1 0 -5 -5 -6 -10 -3 -11 7 -93 -37 -119 -62 -15 -16
-24 -123 -10 -123 5 0 9 -8 9 -18 0 -10 4 -22 10 -28 5 -5 11 -18 14 -29 9
-42 19 -65 28 -65 5 0 6 -4 3 -10 -3 -5 7 -35 22 -67 15 -32 28 -62 28 -68 3
-21 30 -75 38 -75 4 0 5 -4 2 -10 -3 -5 -2 -10 3 -10 5 0 9 -6 9 -12 0 -7 3
-20 6 -28 4 -10 -7 -24 -33 -42 -22 -16 -42 -27 -44 -25 -9 5 -59 -60 -77
-100 -16 -34 -18 -47 -9 -64 7 -11 9 -23 6 -26 -3 -4 -1 -12 5 -20 6 -7 8 -13
5 -13 -4 0 -1 -10 6 -22 7 -13 13 -30 13 -38 0 -8 3 -19 6 -25 4 -9 4 -240 -1
-240 -2 0 -3 -11 -4 -25 -1 -14 -5 -30 -9 -36 -3 -6 -5 -21 -2 -32 2 -12 0
-24 -4 -26 -11 -7 -3 -301 8 -301 2 0 4 -10 7 -22 2 -12 13 -38 24 -58 11 -19
20 -41 20 -48 0 -7 10 -23 23 -37 25 -27 31 -80 10 -93 -7 -4 -13 -15 -13 -22
0 -8 -5 -15 -11 -15 -5 0 -7 -4 -4 -10 3 -5 2 -10 -4 -10 -5 0 -8 -8 -6 -17 1
-10 -2 -24 -8 -31 -11 -14 -13 -107 -3 -167 3 -22 9 -57 12 -77 4 -21 9 -38
13 -38 4 0 8 -12 9 -27 1 -27 8 -68 12 -68 1 0 3 -11 5 -25 11 -89 12 -110 6
-110 -4 0 -8 -12 -9 -27 -1 -15 -7 -30 -13 -34 -6 -3 -10 -9 -10 -13 1 -3 1
-7 0 -8 0 -2 -3 -15 -5 -30 -5 -31 -60 -112 -116 -170 -20 -21 -34 -38 -30
-38 3 0 -9 -15 -28 -33 -19 -18 -36 -36 -37 -40 -2 -4 -4 -8 -4 -9 -10 -18 -1
-69 15 -93 36 -53 119 -135 143 -141 12 -3 22 -9 21 -13 -2 -11 14 -41 22 -41
4 0 38 -30 75 -67 47 -47 69 -77 70 -95 1 -16 -2 -28 -7 -28 -5 0 -7 -4 -4 -8
3 -5 -6 -20 -20 -35 -14 -15 -22 -27 -19 -27 3 0 -23 -29 -58 -65 -35 -36 -67
-65 -70 -65 -3 0 -21 -16 -40 -35 -19 -19 -33 -35 -30 -35 3 0 1 -6 -4 -12
-12 -15 -9 -42 9 -78 16 -33 46 -72 51 -68 6 5 144 -142 138 -147 -2 -3 0 -5
6 -5 20 0 25 -46 28 -250 1 -113 4 -205 5 -205 1 0 3 -13 3 -30 1 -16 6 -36
10 -42 5 -7 4 -13 0 -13 -5 0 -9 -17 -10 -37 -1 -34 -6 -75 -16 -152 -3 -23
-60 -61 -174 -116 -18 -8 -33 -19 -33 -23 0 -5 -16 -14 -35 -22 -19 -7 -32
-17 -30 -21 3 -4 -2 -12 -11 -19 -34 -29 -58 -76 -60 -115 0 -22 2 -44 5 -50
3 -5 6 -16 8 -24 3 -23 46 -57 119 -95 38 -20 65 -36 59 -36 -11 0 74 -51 91
-54 6 -1 24 -10 39 -20 15 -10 34 -19 42 -20 35 -5 30 -66 -5 -66 -7 0 -10 -4
-7 -10 3 -5 1 -10 -5 -10 -6 0 -9 -4 -6 -9 3 -5 -3 -20 -14 -33 -31 -41 -40
-117 -26 -233 4 -27 6 -58 7 -67 0 -10 4 -18 7 -18 4 0 9 -10 10 -22 5 -39 9
-63 12 -63 1 0 3 -12 4 -27 0 -14 4 -30 8 -33 4 -4 3 -16 -3 -26 -5 -11 -7
-19 -3 -19 3 0 1 -7 -6 -15 -7 -8 -9 -15 -5 -15 20 0 -80 -58 -169 -97 -101
-45 -198 -102 -191 -113 2 -3 0 -12 -5 -20 -11 -17 3 -44 41 -81 17 -16 27
-29 24 -29 -3 0 27 -28 67 -62 40 -35 75 -65 78 -68 3 -3 20 -15 39 -27 l34
-21 -32 -7 c-17 -3 -31 -11 -31 -16 0 -5 -5 -9 -12 -9 -19 0 -77 -69 -75 -90
1 -21 149 -180 167 -180 5 0 10 -7 10 -15 0 -8 5 -15 10 -15 6 0 9 -3 8 -7 -2
-5 10 -22 25 -40 16 -17 28 -34 27 -38 -1 -4 10 -17 24 -30 14 -13 26 -28 26
-32 0 -8 38 -43 104 -97 l28 -24 -39 -65 c-34 -55 -39 -72 -37 -114 2 -42 10
-88 14 -88 2 0 8 -24 14 -52 1 -10 -6 -26 -17 -36 -11 -9 -16 -17 -12 -17 5 0
-6 -11 -24 -25 -39 -28 -72 -62 -70 -71 0 -3 -8 -16 -19 -29 -11 -13 -18 -26
-15 -29 4 -3 2 -6 -4 -6 -5 0 -10 -6 -11 -12 -2 -28 -9 -47 -21 -62 -7 -9 -11
-16 -7 -16 3 0 1 -12 -5 -27 -6 -16 -12 -41 -14 -58 -2 -16 -6 -45 -9 -62 -3
-18 -1 -35 3 -37 5 -3 7 -17 6 -31 -2 -14 0 -25 5 -25 5 0 7 -8 6 -17 -2 -10
5 -33 15 -52 10 -19 16 -38 13 -43 -3 -4 0 -8 6 -8 6 0 8 -4 5 -10 -3 -5 -2
-10 4 -10 6 0 8 -6 5 -14 -3 -7 4 -30 15 -50 11 -20 23 -46 25 -58 6 -35 24
-75 34 -82 6 -3 8 -15 5 -26 -3 -12 0 -20 8 -20 7 0 9 -3 6 -7 -4 -3 0 -15 10
-25 9 -10 13 -18 9 -18 -4 0 5 -21 20 -47 14 -26 28 -56 30 -67 2 -11 7 -22
12 -25 4 -3 7 -17 6 -31 -1 -13 4 -34 11 -45 16 -28 8 -132 -14 -174 -17 -31
-23 -58 -25 -116 -3 -60 1 -75 21 -75 8 0 12 -4 8 -9 -3 -5 0 -15 7 -23 7 -7
14 -20 16 -28 2 -7 11 -21 20 -29 9 -9 28 -32 41 -51 25 -35 57 -72 119 -136
18 -19 29 -34 26 -34 -4 0 0 -8 8 -17 23 -27 22 -105 -2 -131 -11 -12 -20 -25
-20 -31 0 -5 -7 -11 -15 -15 -8 -3 -15 -12 -15 -21 0 -8 -5 -15 -12 -15 -6 0
-9 -3 -6 -6 4 -3 -2 -14 -12 -24 -10 -10 -16 -29 -15 -44 2 -14 -1 -26 -5 -26
-8 0 -7 -14 6 -70 3 -14 8 -38 11 -55 2 -16 10 -36 15 -42 6 -7 8 -13 4 -13
-3 0 -1 -12 5 -27 6 -16 13 -37 15 -48 14 -59 14 -61 -7 -62 -12 -1 -29 -8
-38 -16 -9 -8 -31 -18 -49 -22 -18 -4 -30 -11 -27 -16 3 -4 -7 -12 -22 -15
-15 -4 -32 -11 -38 -16 -38 -30 -121 -88 -127 -88 -7 0 -39 -54 -38 -65 0 -3
0 -6 -1 -7 -6 -21 -5 -39 2 -44 5 -3 7 -9 4 -14 -7 -11 63 -80 81 -80 8 0 14
-5 14 -11 0 -5 4 -8 9 -4 5 3 12 1 15 -4 3 -5 17 -12 30 -15 14 -3 59 -22 100
-41 42 -19 80 -35 85 -35 4 0 7 -16 5 -35 -1 -19 1 -37 5 -40 4 -2 7 -30 6
-60 -2 -46 -9 -64 -34 -98 -39 -52 -81 -138 -76 -158 9 -38 18 -59 27 -59 5 0
7 -4 3 -9 -3 -6 12 -28 32 -50 21 -21 48 -52 60 -68 l23 -28 -48 -22 c-26 -12
-52 -25 -57 -30 -6 -4 -32 -19 -59 -33 -27 -14 -65 -40 -84 -58 -19 -17 -39
-32 -43 -32 -16 0 -101 -95 -111 -123 -6 -15 -13 -27 -18 -27 -6 0 -6 -56 0
-70 1 -3 2 -8 2 -11 -1 -3 9 -17 21 -31 21 -24 252 -148 276 -148 6 0 47 -18
90 -40 43 -21 80 -37 83 -35 7 7 103 -50 101 -60 0 -6 3 -18 8 -27 7 -12 4
-18 -9 -22 -9 -3 -23 -19 -30 -36 -8 -17 -18 -27 -24 -24 -6 4 -8 2 -4 -4 3
-6 2 -13 -4 -17 -6 -4 -8 -10 -5 -15 3 -5 1 -11 -4 -14 -13 -9 -4 -107 12
-134 5 -7 11 -24 13 -39 3 -15 14 -35 26 -45 12 -10 17 -18 13 -18 -5 0 -4 -5
3 -12 20 -20 14 -52 -19 -96 -17 -23 -32 -48 -33 -55 -1 -6 -7 -21 -12 -32 -6
-11 -10 -49 -9 -85 1 -67 15 -100 61 -148 25 -26 22 -50 -12 -87 -13 -14 -21
-25 -18 -25 3 0 -7 -14 -23 -31 -15 -17 -38 -42 -50 -55 -13 -14 -23 -28 -23
-32 0 -4 -8 -15 -17 -23 -26 -23 -54 -59 -46 -59 3 0 -6 -11 -21 -25 -15 -14
-24 -25 -20 -25 4 0 -2 -10 -13 -23 -11 -12 -23 -29 -27 -37 -15 -32 -34 -62
-60 -90 -14 -17 -23 -30 -19 -30 4 0 -2 -10 -15 -22 -33 -34 -72 -80 -73 -87
-16 -74 -16 -144 0 -176 9 -16 17 -39 18 -50 2 -11 10 -25 18 -31 8 -6 13 -13
11 -15 -2 -2 13 -21 35 -41 21 -21 39 -36 39 -34 0 2 13 -8 28 -22 126 -118
233 -193 367 -261 66 -34 126 -61 133 -61 10 0 17 -20 13 -42 0 -5 3 -8 7 -8
4 0 7 -24 6 -52 -1 -29 -3 -53 -4 -53 -1 0 -4 -11 -6 -25 -2 -14 -5 -34 -8
-45 -2 -11 -1 -24 3 -30 3 -5 6 -17 8 -25 1 -8 7 -16 14 -19 6 -2 19 -11 29
-21 9 -9 35 -20 56 -23 21 -4 52 -9 69 -13 38 -7 95 -14 117 -15 10 0 20 -4
23 -9 3 -5 12 -7 20 -3 9 3 29 0 46 -7 33 -14 149 -17 224 -5 34 5 104 36 215
96 170 91 213 108 224 90 4 -5 13 -8 20 -5 18 7 32 -25 40 -91 3 -16 5 -30 6
-30 3 0 11 -40 15 -75 4 -34 12 -75 15 -75 1 0 3 -9 5 -20 19 -116 79 -157
190 -128 28 7 56 11 62 8 7 -2 13 -1 13 3 0 4 9 8 20 9 19 2 248 118 260 132
13 16 119 63 131 59 8 -3 62 -41 119 -85 147 -112 150 -113 245 -113 62 1 82
4 120 20 74 30 190 60 203 51 11 -7 261 -5 367 3 72 5 146 -9 142 -27 -1 -6
25 -19 58 -31 33 -11 65 -25 70 -31 14 -17 97 -61 140 -75 19 -6 35 -15 35
-19 0 -4 25 -20 55 -36 30 -17 55 -33 55 -37 0 -5 7 -8 15 -8 8 0 15 -7 15
-15 0 -8 4 -15 9 -15 5 0 16 -6 23 -12 28 -28 87 -68 98 -68 6 0 17 -6 25 -13
40 -38 109 -77 150 -84 11 -2 23 -7 28 -12 14 -14 70 4 133 44 73 46 92 66 98
100 3 15 10 33 17 41 6 8 9 14 5 14 -4 0 1 11 10 25 9 14 13 25 10 25 -4 0 1
15 11 33 9 17 16 35 15 40 -1 4 3 7 8 7 6 0 10 6 10 14 0 8 5 16 11 18 6 2 12
17 14 34 1 16 12 52 25 79 12 28 24 57 26 65 8 40 11 50 16 56 4 3 4 13 1 22
-5 12 -2 14 18 8 64 -18 81 -18 119 -1 22 10 40 22 40 27 0 5 6 8 13 5 6 -2
22 0 35 4 12 5 22 5 22 0 0 -4 6 -8 13 -8 21 0 151 -45 181 -64 16 -9 35 -15
42 -12 8 3 21 0 29 -7 8 -7 40 -12 71 -11 76 1 149 41 185 102 14 25 25 52 23
62 -1 9 1 17 6 17 4 0 5 24 3 53 -3 28 -5 67 -6 85 -1 17 -5 32 -9 32 -4 0 -8
13 -8 28 0 16 -3 32 -7 36 -5 4 -9 16 -9 27 -1 10 -2 20 -3 22 -2 1 -5 13 -7
27 -2 13 -12 35 -20 48 -9 13 -13 26 -10 29 5 6 -13 58 -46 132 -10 24 -17 46
-14 49 4 3 -1 13 -10 23 -8 9 -16 27 -18 40 -1 13 -8 34 -14 45 -6 12 -8 24
-5 28 3 3 2 6 -4 6 -13 0 -47 68 -48 95 0 11 -4 26 -8 33 -5 6 -5 12 -2 12 4
0 -1 7 -10 16 -11 11 -13 20 -5 28 5 7 7 16 3 19 -3 4 -1 7 6 7 7 0 10 4 6 9
-3 5 5 21 17 35 13 13 36 40 51 59 16 19 44 43 63 53 19 10 34 22 34 26 0 5 7
8 15 8 8 0 15 4 15 9 0 5 12 14 28 20 18 8 33 27 47 59 26 64 26 109 -2 154
-13 21 -23 41 -23 46 0 4 -8 17 -18 28 -19 21 -36 54 -33 67 0 4 -5 10 -14 13
-11 5 -7 12 17 32 18 15 36 27 40 27 5 0 12 5 16 10 4 6 32 23 62 39 87 46
138 86 152 120 7 17 12 34 10 39 -1 4 2 7 6 7 14 0 4 113 -11 138 -5 6 -5 12
0 12 4 0 2 4 -5 9 -8 5 -15 24 -16 43 -1 19 -6 39 -9 45 -4 7 -3 14 1 17 5 3
8 18 7 33 -1 15 3 37 10 48 6 11 11 32 10 48 -1 15 1 27 5 27 4 0 6 11 5 25
-2 14 1 27 6 31 5 3 7 10 4 15 -4 5 -2 9 2 9 5 0 9 12 10 27 1 16 4 44 8 63 3
19 8 51 10 70 3 19 7 55 10 80 14 112 24 550 12 550 -5 0 -6 4 -3 8 2 4 -6 28
-19 54 -13 25 -21 49 -18 52 4 3 0 6 -8 6 -17 0 -63 65 -67 94 -6 42 -5 132 2
161 4 17 9 43 11 59 2 15 8 33 13 40 5 6 8 19 7 29 -2 9 1 17 6 17 5 0 9 7 9
15 0 8 8 23 18 33 18 18 32 45 38 69 1 7 10 20 19 29 9 9 14 22 11 29 -3 8 1
16 8 18 11 4 37 74 42 112 0 6 2 12 3 15 8 14 7 60 -1 60 -4 0 -8 6 -8 14 0
18 -39 86 -49 86 -4 0 -15 14 -24 30 -10 17 -15 30 -11 30 4 0 -1 7 -12 15
-10 8 -15 15 -11 15 5 0 -1 13 -12 29 -11 15 -18 31 -14 35 3 3 1 6 -6 6 -7 0
-10 4 -7 9 4 5 1 11 -4 13 -6 2 -13 12 -15 23 -2 11 -4 20 -5 20 -5 0 -11 122
-13 290 -1 105 -7 197 -12 205 -5 8 -11 23 -12 33 -4 26 -34 64 -60 76 -12 5
-20 16 -19 25 2 13 28 54 51 80 19 20 70 101 74 116 7 31 7 70 0 70 -4 0 -11
9 -14 20 -3 11 -12 20 -20 20 -7 0 -15 7 -19 15 -3 8 -17 20 -31 25 -21 8 -24
14 -19 36 4 15 8 36 9 48 1 11 4 22 5 24 6 5 6 48 0 57 -3 6 -7 24 -9 40 -2
17 -8 36 -13 42 -6 7 -7 13 -2 13 5 0 4 4 -1 8 -6 4 -18 19 -28 34 -17 27 -16
28 14 73 26 38 73 76 94 75 21 -1 25 2 25 15 0 8 9 15 20 15 23 0 133 107 125
121 -4 5 -1 9 4 9 6 0 10 3 9 8 -1 4 4 18 12 32 7 14 14 33 15 42 2 19 33 58
46 58 25 0 35 -31 32 -106 -1 -69 -7 -119 -13 -119 -1 0 -4 -13 -6 -29 -2 -16
-7 -32 -12 -35 -17 -12 -6 -125 16 -163 19 -33 19 -39 7 -52 -8 -8 -15 -17
-15 -21 0 -4 -6 -13 -12 -20 -28 -31 -36 -43 -50 -71 -8 -16 -14 -36 -13 -44
1 -8 -2 -19 -5 -25 -4 -5 -6 -35 -4 -65 5 -75 6 -80 16 -80 4 0 7 -3 6 -7 -4
-17 16 -59 40 -81 21 -20 25 -33 26 -90 2 -60 22 -132 36 -132 3 0 5 -12 5
-27 -1 -16 3 -37 10 -48 6 -11 10 -24 10 -30 -2 -25 -17 -55 -27 -55 -6 0 -8
-3 -5 -7 7 -6 -35 -40 -42 -34 -2 1 -14 -14 -27 -34 -22 -37 -24 -86 -3 -93 5
-2 9 -9 9 -15 0 -7 11 -21 25 -31 14 -11 42 -42 63 -70 20 -28 42 -57 49 -64
7 -7 13 -19 14 -25 6 -60 4 -89 -6 -95 -30 -18 -81 -100 -80 -128 2 -40 15
-84 26 -84 5 0 9 -6 9 -12 0 -7 13 -27 30 -44 16 -18 27 -34 24 -37 -3 -2 5
-24 18 -48 37 -72 39 -67 -44 -143 -21 -18 -38 -38 -38 -45 0 -6 -7 -11 -16
-11 -8 0 -13 -4 -10 -9 3 -5 -1 -14 -9 -21 -8 -7 -15 -18 -15 -26 0 -7 -7 -19
-15 -28 -8 -8 -17 -25 -19 -38 -3 -13 -5 -23 -6 -23 -2 0 -4 -31 -5 -70 -3
-81 13 -125 56 -156 16 -11 29 -17 29 -13 0 3 6 1 14 -5 11 -9 12 -19 4 -44
-22 -71 -31 -185 -15 -205 5 -6 6 -12 3 -12 -9 0 13 -31 50 -73 33 -36 35 -57
10 -105 -9 -17 -14 -32 -11 -32 3 0 -2 -11 -11 -25 -9 -14 -13 -25 -10 -25 4
0 0 -12 -7 -28 -8 -15 -13 -48 -11 -73 2 -44 39 -140 56 -147 5 -2 6 -8 3 -13
-4 -5 1 -24 10 -43 9 -19 18 -43 20 -53 2 -10 4 -19 5 -20 8 -9 5 -110 -3
-121 -5 -6 -7 -12 -4 -12 3 0 0 -15 -8 -34 -8 -18 -11 -36 -8 -40 4 -3 1 -6
-5 -6 -7 0 -12 -9 -12 -19 0 -11 -5 -23 -10 -26 -6 -4 -8 -11 -5 -16 4 -5 2
-9 -4 -9 -14 0 -7 -93 7 -98 7 -2 10 -7 7 -12 -2 -4 11 -24 31 -44 19 -20 30
-36 24 -36 -6 0 -8 -5 -5 -10 3 -6 1 -10 -4 -10 -6 0 -10 -3 -9 -7 1 -5 -4
-19 -12 -33 -26 -47 -32 -153 -11 -195 17 -34 48 -65 66 -65 7 0 15 -7 19 -15
6 -18 -12 -75 -25 -75 -5 0 -8 -3 -7 -7 1 -5 -3 -18 -10 -30 -7 -13 -10 -23
-6 -23 4 0 0 -8 -9 -17 -8 -10 -16 -21 -17 -25 -1 -9 -8 -32 -17 -56 -3 -9 -5
-20 -5 -24 1 -5 -2 -8 -6 -8 -9 0 -10 -3 -15 -65 -6 -74 37 -118 158 -160 28
-9 57 -20 65 -23 8 -3 18 -5 22 -4 19 4 103 -29 120 -47 10 -12 16 -21 12 -21
-3 0 0 -7 7 -16 17 -21 13 -65 -9 -82 -9 -6 -13 -12 -9 -12 8 0 -29 -36 -78
-77 -14 -12 -52 -32 -85 -44 -59 -21 -82 -45 -58 -61 7 -4 9 -8 5 -8 -4 0 -2
-6 5 -14 7 -8 15 -12 18 -11 3 2 24 6 46 8 22 3 68 19 102 36 34 17 64 31 67
31 3 0 3 -12 0 -27 -4 -16 -8 -39 -10 -53 -2 -14 -7 -36 -10 -50 -4 -14 -8
-41 -9 -60 -1 -19 -8 -45 -14 -57 -7 -13 -10 -23 -7 -23 3 0 -2 -8 -12 -18
-18 -19 -129 -58 -188 -67 -29 -4 -65 -18 -65 -25 0 -5 -14 -11 -31 -15 -17
-4 -28 -9 -25 -12 3 -3 -3 -13 -12 -22 -10 -9 -24 -32 -31 -51 -11 -32 -10
-37 10 -53 21 -16 23 -16 48 -1 14 10 30 23 34 31 8 14 58 42 85 48 10 2 27 7
40 11 14 4 22 2 22 -5 0 -7 4 -10 8 -7 4 2 13 -3 19 -13 12 -20 -1 -57 -32
-87 -8 -8 -15 -22 -15 -29 0 -7 -10 -22 -23 -32 -13 -10 -26 -25 -29 -33 -3
-8 -27 -42 -54 -75 -27 -32 -50 -71 -51 -85 -6 -59 -5 -73 11 -82 21 -12 20
-23 -2 -25 -29 -2 -93 -50 -120 -88 -25 -35 -40 -135 -20 -135 5 0 7 -4 3 -9
-3 -5 -1 -13 5 -16 12 -7 73 53 66 64 -9 14 120 111 148 111 2 0 2 -71 1 -158
-2 -193 2 -202 73 -169 26 12 60 36 77 52 16 17 46 42 65 56 33 25 39 26 67
14 18 -8 34 -24 40 -41 12 -34 7 -112 -8 -130 -5 -6 -9 -16 -8 -20 3 -21 -15
-54 -29 -54 -8 0 -13 -3 -9 -6 3 -4 1 -12 -6 -20 -36 -40 -82 -114 -72 -114 4
0 3 -6 -2 -12 -5 -7 -9 -20 -8 -28 1 -8 3 -22 3 -31 1 -9 9 -20 18 -23 19 -7
57 11 49 25 -4 5 -2 9 2 9 5 0 16 18 26 40 9 22 22 40 28 40 5 0 7 4 4 10 -3
5 -1 10 5 10 18 0 70 59 70 80 0 11 5 20 11 20 5 0 7 5 4 10 -3 6 -1 10 5 10
6 0 9 4 6 9 -3 5 0 21 8 36 8 15 12 38 10 51 -7 39 9 27 34 -24 25 -53 120
-162 140 -162 7 0 11 -4 7 -9 -9 -15 16 -25 55 -23 65 4 67 6 87 72 2 8 6 47
7 85 2 39 5 70 6 70 1 0 3 11 5 25 8 57 13 81 18 86 8 8 41 -18 45 -36 2 -8 8
-18 14 -21 5 -3 9 -9 9 -13 -1 -3 -1 -7 0 -8 0 -2 2 -14 4 -28 2 -14 7 -43 10
-65 4 -22 7 -46 7 -52 1 -7 5 -13 10 -13 4 0 7 -3 5 -8 -1 -4 8 -20 19 -35 21
-26 49 -34 69 -19 14 10 15 42 2 42 -6 0 -7 3 -4 7 4 3 2 12 -4 19 -6 8 -9 20
-6 29 4 8 3 17 -2 19 -4 3 -7 29 -6 58 1 29 -1 58 -4 63 -3 6 -7 18 -8 29 -2
10 -12 29 -23 43 -20 26 -26 52 -12 54 33 6 59 6 67 -1 6 -4 19 -5 30 -3 11 2
26 5 34 5 7 1 22 15 32 32 18 30 17 67 -4 94 -5 6 -6 12 -2 12 4 0 2 6 -4 13
-6 8 -8 17 -4 20 3 4 1 7 -5 7 -7 0 -12 6 -12 13 -1 6 -16 34 -35 62 -18 27
-31 53 -29 57 3 4 1 8 -4 8 -4 0 -17 8 -28 18 -11 10 -42 32 -69 48 -60 34
-106 74 -100 84 4 7 48 10 143 11 44 0 117 -27 168 -63 80 -57 97 -6 24 71
-43 46 -110 90 -110 74 0 -5 -4 -2 -9 6 -9 14 -67 17 -191 11 -56 -3 -155 24
-145 40 3 4 -1 10 -9 13 -13 5 -46 61 -46 78 0 4 15 2 33 -3 17 -6 39 -13 47
-16 35 -11 96 -15 145 -9 50 7 75 45 41 63 -12 5 -50 11 -85 12 -53 1 -73 6
-113 32 -27 16 -52 30 -56 30 -4 1 -18 10 -31 21 -20 17 -24 29 -26 85 -1 36
2 67 6 69 4 3 18 1 30 -3 16 -6 37 -3 69 11 25 11 47 23 50 26 3 3 29 19 58
34 50 27 54 28 78 12 13 -9 22 -20 19 -25 -3 -4 2 -15 10 -24 9 -8 16 -18 16
-21 -1 -37 41 -73 80 -69 68 8 171 97 158 137 0 1 11 26 26 55 14 29 28 61 31
72 2 11 6 29 9 40 3 11 7 30 10 41 2 12 12 30 21 40 15 17 17 16 51 -4 22 -13
50 -20 73 -19 24 2 37 -2 38 -10 7 -63 10 -95 11 -106 1 -7 6 -10 13 -6 8 5 9
2 5 -10 -8 -20 36 -66 63 -66 10 0 20 -7 24 -15 3 -8 1 -15 -3 -15 -5 0 -7 -9
-4 -20 3 -12 0 -20 -6 -20 -7 0 -9 -4 -6 -10 3 -5 3 -10 -2 -10 -4 0 -9 -19
-10 -41 0 -23 -5 -44 -10 -48 -14 -10 -12 -41 4 -41 8 0 11 -5 7 -12 -10 -16
-13 -88 -3 -88 4 0 6 -13 5 -30 -1 -16 2 -30 7 -30 5 0 7 -7 3 -15 -3 -8 -1
-15 4 -15 6 0 9 -3 9 -7 -4 -26 3 -63 10 -58 6 3 10 -3 10 -12 1 -37 8 -65 17
-71 6 -4 10 -19 9 -34 -1 -20 3 -28 14 -28 13 0 13 -2 3 -9 -11 -7 -10 -9 3
-15 9 -3 14 -10 11 -15 -4 -5 0 -16 8 -24 8 -8 12 -17 9 -21 -3 -3 2 -8 11
-12 9 -3 13 -10 10 -15 -3 -5 1 -9 8 -9 7 0 24 -18 38 -40 13 -22 29 -40 36
-40 7 0 22 -12 34 -27 12 -16 18 -21 14 -13 -5 10 0 9 14 -4 12 -11 25 -16 28
-13 4 3 16 1 28 -5 22 -13 216 -20 216 -8 0 4 7 7 15 7 8 0 15 -3 15 -7 0 -3
9 -6 20 -7 11 -1 20 3 20 9 0 7 4 7 13 0 13 -11 17 -12 43 -12 10 0 14 -6 11
-14 -4 -10 1 -13 19 -11 13 1 24 -2 24 -6 0 -5 7 -9 15 -9 8 0 15 -4 15 -8 0
-8 31 -13 85 -15 17 -1 33 -6 37 -11 4 -6 12 -5 21 2 7 7 17 8 21 4 9 -8 286
-11 286 -2 0 5 53 6 75 0 6 -1 12 -1 15 0 3 2 25 4 50 6 63 5 70 6 70 14 0 6
36 18 72 24 3 1 10 5 15 10 5 6 2 6 -7 1 -13 -8 -13 -6 -1 8 7 9 17 14 22 11
5 -3 9 1 9 9 0 8 6 17 14 20 9 4 12 14 9 26 -3 13 -1 21 7 21 7 0 10 7 6 16
-3 8 -2 12 4 9 9 -6 13 11 13 57 0 10 4 15 8 12 5 -3 9 0 9 6 0 10 107 120
158 161 20 17 121 55 135 51 4 -1 23 4 42 13 20 8 38 14 41 14 3 0 9 3 12 7 4
4 0 4 -8 0 -8 -4 -6 0 5 8 45 36 75 68 70 76 -3 4 2 11 11 14 9 4 14 9 10 13
-7 8 21 55 41 66 7 5 11 12 8 18 -4 5 -1 9 6 9 7 0 9 3 6 7 -4 3 0 17 9 31 8
13 13 30 10 38 -3 8 -1 14 5 14 6 0 8 4 4 9 -3 5 -1 12 5 16 6 4 8 10 5 15 -3
5 -1 11 4 15 6 3 7 13 4 22 -4 9 -2 14 3 10 6 -3 10 8 9 28 -1 19 2 32 7 29 5
-3 7 10 5 30 -2 19 0 33 4 30 5 -3 10 7 11 23 1 33 3 43 11 63 5 14 7 28 8 72
0 10 5 18 10 18 5 0 8 13 7 29 -1 16 4 36 11 45 7 9 9 16 4 16 -6 0 -10 17
-11 37 -1 21 -3 48 -5 59 -4 24 -30 54 -47 54 -6 0 -8 5 -5 10 6 9 -8 14 -20
8 -7 -4 -40 45 -40 62 0 8 4 21 9 28 5 7 5 12 -1 12 -6 0 -9 24 -8 55 2 30 0
57 -4 60 -4 2 -6 16 -5 32 1 15 -5 34 -12 41 -8 7 -14 10 -14 6 0 -12 -50 46
-51 59 -5 53 -2 75 13 98 10 14 15 29 11 32 -3 3 11 14 31 23 20 10 36 22 36
26 0 5 5 6 10 3 6 -3 10 -1 10 4 0 6 6 11 13 11 7 0 29 15 49 33 20 18 42 31
49 28 8 -2 11 0 7 4 -8 9 16 35 32 35 6 0 8 5 5 10 -3 6 -1 10 5 10 6 0 9 4 6
9 -3 5 1 11 9 14 12 5 55 76 61 100 1 4 3 9 4 12 1 3 3 13 4 23 1 9 5 23 9 30
5 6 6 15 4 20 -13 20 -16 82 -5 82 9 0 9 3 0 12 -16 16 -15 21 6 46 27 32 45
59 45 68 0 5 6 14 14 19 8 6 15 20 16 32 0 13 7 25 13 27 8 3 12 22 10 51 -1
25 2 49 7 52 5 3 6 25 4 49 -4 28 -2 44 6 48 9 3 9 5 0 5 -7 1 -10 8 -7 16 4
8 2 15 -3 15 -8 0 -10 7 -14 65 -1 14 -5 25 -10 25 -5 0 -8 3 -8 8 4 21 -3 40
-23 62 -24 27 -33 50 -20 50 4 0 8 12 9 26 0 15 7 30 15 35 10 7 10 9 0 9 -10
0 -10 3 0 14 7 8 18 11 23 8 6 -2 5 0 -1 7 -11 12 -7 71 5 71 4 0 7 16 6 35
-1 19 2 32 7 29 5 -3 7 11 5 30 -3 20 0 39 4 42 5 3 7 16 5 29 -2 13 2 32 9
42 9 12 10 23 4 35 -7 12 -6 18 1 18 7 0 8 5 3 13 -11 16 -11 58 0 81 6 13 6
16 -2 12 -7 -5 -11 2 -11 18 0 14 -4 26 -10 26 -5 0 -7 6 -4 13 8 22 -74 97
-107 97 -18 0 -41 29 -32 42 10 16 12 98 2 98 -4 0 -5 9 -2 20 3 12 0 20 -6
20 -7 0 -9 5 -6 10 4 6 1 17 -5 25 -7 8 -9 15 -5 15 4 0 -4 9 -19 21 -14 11
-26 26 -25 32 3 25 -2 36 -18 41 -13 4 -18 16 -18 40 0 19 2 33 6 31 3 -3 12
6 19 19 7 14 21 27 32 29 13 4 17 10 12 18 -4 7 -3 10 4 5 6 -3 13 -2 17 4 4
6 10 8 15 5 5 -3 11 4 15 15 3 11 12 20 20 20 12 0 31 44 27 63 -1 4 3 7 9 7
6 0 9 6 6 14 -3 8 -2 16 3 18 5 2 12 19 14 38 3 19 6 35 7 35 1 0 3 64 4 143
2 78 -1 142 -6 142 -5 0 -6 6 -3 14 3 8 1 24 -6 35 -8 16 -8 21 2 21 8 0 6 5
-4 11 -10 5 -18 19 -18 30 0 11 -5 17 -10 14 -5 -3 -10 3 -10 14 0 10 -5 21
-10 23 -6 2 -1 9 11 16 12 8 18 9 15 3 -4 -7 -1 -8 8 -5 9 3 13 11 9 17 -4 6
0 8 10 4 11 -4 17 -1 17 8 0 8 5 16 10 16 11 2 25 5 38 9 4 1 10 2 15 1 4 0 7
6 7 15 0 8 5 12 10 9 6 -3 10 -1 10 4 0 6 7 11 15 11 9 0 18 7 21 15 3 8 14
17 25 20 10 4 18 9 18 13 -1 4 0 10 1 15 1 4 3 10 5 15 1 4 9 22 17 41 8 18
14 47 13 62 -1 16 2 29 8 29 5 0 4 8 -5 18 -8 9 -13 27 -12 40 0 12 -3 22 -8
22 -6 0 -8 7 -4 15 3 8 -1 18 -8 22 -7 5 -21 22 -32 38 -10 17 -24 34 -31 38
-7 4 -13 14 -13 21 0 8 -13 19 -30 26 -16 7 -30 19 -30 26 0 8 -3 13 -7 12
-13 -4 -73 24 -73 34 0 5 -4 7 -9 4 -5 -3 -12 1 -15 10 -3 8 -11 12 -17 8 -6
-3 -15 0 -20 7 -7 11 -9 11 -9 1 0 -10 -3 -10 -15 2 -16 15 -20 30 -7 23 12
-7 59 49 56 67 -1 9 2 16 7 16 6 0 7 5 4 10 -3 6 -2 10 3 10 9 0 11 8 14 55 1
14 5 25 9 25 4 0 6 21 4 48 -1 26 2 54 6 63 5 9 5 19 2 23 -7 7 -11 24 -15 64
-1 12 -6 22 -11 22 -5 0 -4 7 3 15 9 10 9 15 1 15 -6 0 -11 7 -11 15 0 8 -4
15 -9 15 -6 0 -8 9 -6 20 2 11 -1 20 -6 20 -6 0 -7 4 -4 10 3 6 1 10 -5 10 -6
0 -8 4 -5 10 3 5 0 10 -8 10 -8 0 -17 11 -19 25 -3 14 -2 25 2 25 4 0 15 19
26 43 16 37 26 50 69 85 6 5 21 7 33 5 12 -1 22 1 22 5 0 9 101 9 116 -1 6 -3
14 -3 18 0 8 8 66 12 231 16 83 2 117 -1 137 -13 16 -8 28 -19 28 -23 0 -5 5
-5 10 -2 9 6 14 -8 11 -27 0 -5 3 -8 7 -8 5 0 10 -24 11 -52 2 -29 3 -59 4
-65 0 -7 5 -13 11 -13 6 0 4 -5 -4 -10 -10 -6 -11 -10 -2 -10 7 0 12 -14 12
-36 0 -23 4 -33 11 -28 7 4 7 -1 -1 -16 -8 -15 -8 -20 -1 -16 10 6 16 -13 12
-37 0 -4 3 -7 9 -7 5 0 10 -9 10 -20 0 -11 5 -20 10 -20 6 0 10 -11 10 -25 0
-14 7 -28 15 -31 8 -4 12 -10 9 -15 -3 -5 -2 -9 3 -9 4 0 9 -14 10 -30 1 -17
-2 -28 -7 -25 -6 3 -7 -1 -4 -9 3 -9 2 -16 -2 -16 -5 0 -10 -12 -11 -26 0 -15
-6 -30 -12 -33 -6 -4 -13 -31 -15 -60 -3 -30 -8 -57 -13 -60 -17 -13 -25 -121
-8 -121 6 0 5 -4 -2 -8 -8 -5 -9 -19 -4 -45 5 -20 7 -37 4 -37 -3 0 0 -6 6
-13 6 -8 8 -17 4 -21 -11 -11 -12 -36 -1 -36 6 0 8 -6 5 -14 -3 -8 -3 -17 1
-20 6 -7 12 -30 14 -53 1 -7 6 -13 11 -13 5 0 7 -7 3 -15 -3 -8 -2 -15 2 -15
4 0 13 -9 20 -21 8 -12 9 -18 3 -14 -6 3 -11 1 -11 -4 0 -6 4 -11 9 -11 5 0 5
-15 1 -35 -4 -19 -6 -35 -4 -35 3 0 -4 -12 -13 -27 -10 -15 -13 -24 -6 -20 9
5 8 -3 -2 -28 -11 -26 -12 -35 -3 -35 6 0 3 -7 -8 -16 -13 -11 -15 -17 -6 -20
6 -3 9 -11 5 -17 -7 -12 -11 -37 -14 -84 -1 -13 -7 -23 -13 -23 -6 0 -4 -5 4
-10 8 -5 10 -10 5 -10 -6 0 -11 -10 -12 -22 -3 -82 -7 -117 -12 -114 -13 8 -2
-115 12 -143 14 -28 14 -31 -5 -37 -11 -3 -17 -8 -15 -11 3 -2 -6 -16 -19 -30
-13 -14 -24 -32 -24 -39 0 -8 -4 -14 -9 -14 -10 0 -18 -20 -26 -61 -3 -12 -10
-26 -17 -31 -10 -6 -9 -8 2 -8 12 0 13 -2 1 -9 -7 -5 -11 -13 -7 -19 3 -6 1
-14 -5 -18 -8 -4 -7 -9 2 -15 8 -5 9 -9 3 -9 -8 0 -10 -21 -8 -62 5 -86 9
-104 25 -100 8 2 11 1 7 -3 -4 -4 -3 -18 3 -32 7 -18 5 -28 -6 -39 -8 -9 -15
-13 -15 -9 0 3 -11 -4 -24 -17 -12 -13 -36 -33 -52 -46 -16 -12 -28 -26 -27
-30 0 -4 -4 -20 -11 -37 -7 -16 -16 -43 -21 -60 -9 -34 -13 -265 -4 -265 3 0
5 -10 6 -22 0 -13 4 -38 8 -56 6 -27 5 -31 -9 -26 -9 4 -18 0 -22 -9 -3 -9
-11 -14 -18 -11 -7 3 -22 -4 -34 -15 -16 -14 -19 -21 -10 -24 8 -4 7 -6 -4 -6
-10 -1 -18 -8 -18 -16 0 -8 -5 -15 -12 -15 -6 0 -8 -3 -5 -6 3 -4 2 -16 -4
-27 -8 -14 -8 -18 0 -13 6 4 11 3 11 -3 0 -5 -5 -11 -12 -13 -7 -3 -8 -9 -3
-19 5 -8 11 -23 12 -33 2 -11 11 -28 20 -38 9 -10 13 -18 8 -18 -4 0 -2 -7 5
-15 8 -9 9 -26 4 -47 -7 -29 -8 -56 -5 -89 1 -5 5 -8 10 -4 6 3 8 -4 6 -15 -2
-11 0 -20 6 -20 5 0 9 -9 9 -19 0 -10 7 -22 16 -25 8 -3 12 -11 8 -17 -4 -7
-3 -9 3 -6 6 4 23 -3 39 -15 15 -13 24 -16 19 -8 -7 12 -6 13 6 4 8 -6 27 -14
42 -18 25 -6 28 -10 23 -37 -2 -16 -10 -37 -18 -46 -9 -12 -9 -15 0 -9 6 4 12
3 12 -2 0 -6 -6 -12 -14 -15 -9 -4 -12 -17 -10 -36 2 -17 0 -31 -4 -31 -4 0
-7 -24 -6 -53 0 -28 -3 -65 -8 -82 -5 -19 -4 -31 2 -33 6 -2 8 -8 4 -13 -3 -5
1 -9 8 -9 9 0 9 -3 -2 -10 -13 -9 -13 -11 0 -20 8 -5 11 -10 5 -10 -7 0 -7 -3
0 -8 13 -9 35 -49 35 -63 0 -7 12 -22 28 -35 15 -13 23 -24 18 -24 -5 0 -3 -7
4 -15 7 -8 17 -12 24 -8 6 3 8 3 4 -1 -3 -4 3 -18 14 -31 11 -13 19 -26 18
-30 -1 -4 4 -11 11 -15 8 -6 3 -17 -20 -39 -17 -17 -31 -35 -31 -41 0 -6 -4
-8 -10 -5 -10 6 -14 -7 -11 -32 1 -7 -3 -13 -9 -13 -6 0 -9 -4 -5 -9 3 -5 1
-12 -5 -16 -6 -4 -8 -11 -5 -16 4 -5 1 -9 -5 -9 -7 0 -10 -6 -7 -14 3 -7 -1
-23 -9 -34 -9 -13 -11 -23 -4 -27 6 -4 4 -13 -6 -23 -12 -11 -13 -17 -5 -20 8
-3 9 -8 1 -17 -13 -16 -19 -182 -6 -195 6 -6 6 -10 0 -10 -5 0 -9 -40 -9 -90
0 -49 3 -90 6 -90 3 0 5 -12 4 -28 -1 -15 3 -30 9 -34 7 -5 6 -8 -3 -8 -9 0
-10 -4 -4 -12 9 -12 22 -73 26 -120 1 -10 5 -18 9 -18 4 0 5 -9 3 -20 -2 -11
0 -20 4 -20 5 0 14 -13 21 -30 7 -16 17 -30 22 -30 5 0 6 -4 3 -10 -3 -5 0
-10 7 -10 18 0 37 -33 33 -56 -2 -11 -4 -22 -4 -26 -1 -5 -9 -8 -18 -8 -15 0
-16 -2 -3 -10 12 -8 12 -10 -2 -15 -10 -4 -14 -14 -10 -27 3 -14 1 -19 -6 -14
-8 5 -10 2 -6 -8 4 -9 1 -16 -6 -16 -7 0 -10 -8 -7 -20 3 -11 2 -20 -3 -20 -8
0 -21 -32 -24 -65 -2 -11 -7 -31 -11 -45 -12 -33 -16 -52 -17 -70 0 -8 -5 -21
-11 -28 -6 -8 -5 -12 4 -12 9 0 10 -3 3 -8 -6 -4 -10 -19 -9 -35 1 -15 -1 -27
-6 -27 -4 0 -5 -9 -2 -19 3 -10 -1 -29 -8 -42 -9 -18 -9 -24 0 -27 9 -3 9 -7
0 -18 -14 -18 -18 -74 -5 -74 8 0 8 -3 1 -8 -9 -6 -12 -84 -5 -102 1 -3 2 -8
1 -12 0 -5 4 -8 9 -8 6 0 10 -9 10 -20 0 -11 5 -20 10 -20 6 0 10 -7 10 -16 0
-8 5 -12 10 -9 5 3 10 -1 10 -10 0 -8 7 -18 16 -22 8 -3 13 -12 10 -20 -3 -8
-2 -12 3 -9 4 3 25 -10 46 -29 21 -19 44 -35 52 -35 8 0 12 -4 9 -9 -3 -5 0
-11 7 -14 15 -6 21 -63 8 -72 -6 -3 -8 -12 -4 -20 3 -8 0 -15 -7 -15 -9 0 -10
-3 -1 -13 6 -8 8 -16 5 -20 -3 -3 -6 -23 -7 -45 -1 -39 22 -89 50 -105 7 -4
13 -15 13 -22 0 -8 9 -15 21 -15 11 0 17 -4 14 -10 -3 -5 -1 -10 5 -10 6 0 8
-5 4 -12 -4 -6 -3 -8 4 -4 6 3 17 0 25 -8 8 -8 17 -13 20 -10 3 3 11 -8 18
-25 7 -16 16 -28 20 -25 4 2 6 -4 5 -13 -3 -20 21 -63 41 -76 8 -5 11 -12 8
-18 -6 -8 2 -11 21 -8 4 0 10 -3 13 -8 10 -13 68 -43 73 -37 3 3 21 -4 41 -15
19 -11 38 -17 41 -14 3 4 6 2 6 -4 0 -5 6 -10 13 -11 6 0 28 -3 47 -7 19 -3
41 -7 48 -7 6 -1 12 -5 12 -9 0 -4 9 -6 20 -4 11 2 20 0 20 -5 0 -5 7 -7 15
-4 8 4 21 2 28 -4 7 -6 26 -9 42 -7 17 1 35 0 40 -5 9 -6 186 -6 193 0 1 1 6
3 12 4 5 0 18 9 30 18 11 10 20 15 20 11 0 -5 12 5 26 20 14 15 29 25 35 22 5
-4 9 1 9 9 0 9 6 15 13 13 6 -1 11 3 10 8 -1 6 10 12 24 13 14 1 32 7 39 12 7
6 15 7 18 2 6 -10 42 -9 52 0 3 4 21 4 40 2 21 -3 34 0 34 7 0 6 9 9 20 6 11
-3 18 -1 15 3 -5 9 52 26 70 21 6 -1 7 0 3 4 -7 8 20 40 33 40 11 0 68 63 62
68 -4 5 33 30 47 32 3 0 15 6 26 13 12 6 24 8 28 5 3 -3 6 0 6 7 0 7 3 11 6 7
4 -3 18 0 33 7 14 7 37 11 51 10 14 -1 33 3 44 8 14 8 17 7 10 -4 -6 -10 -5
-11 8 -1 8 7 18 10 21 6 4 -3 7 -1 7 5 0 6 8 9 19 7 24 -4 94 19 84 29 -4 4 0
4 9 1 10 -4 25 2 37 14 12 12 21 18 21 14 0 -5 4 -2 9 5 4 7 17 14 28 15 14 1
19 6 15 16 -3 8 -1 12 4 8 12 -7 126 98 117 107 -4 3 -1 6 6 6 7 0 9 4 6 10
-4 6 1 7 11 3 10 -4 15 -2 11 4 -3 5 3 24 14 42 11 19 14 30 7 26 -7 -4 -6 -1
3 7 16 13 19 19 19 39 0 5 4 8 9 5 5 -3 7 8 6 25 -2 19 3 33 11 36 11 4 12 9
3 19 -9 11 -9 14 0 14 7 0 9 4 6 10 -3 5 0 10 7 10 9 0 10 3 2 8 -6 4 -9 16
-7 27 9 39 12 145 4 140 -5 -2 -7 9 -6 25 1 17 -1 30 -6 30 -5 0 -9 5 -9 11 0
5 5 7 11 3 8 -5 8 -1 0 13 -6 11 -7 23 -4 27 3 3 1 6 -6 6 -7 0 -10 4 -6 9 3
5 -2 16 -10 24 -11 12 -12 17 -2 20 6 3 3 6 -8 6 -15 1 -17 3 -7 10 10 6 7 10
-12 15 -14 3 -26 13 -26 21 0 14 -12 19 -32 16 -5 0 -8 6 -8 15 0 8 -4 13 -8
10 -9 -6 -123 51 -133 66 -3 5 -9 9 -13 9 -25 -4 -46 1 -42 8 4 5 -5 8 -18 7
-15 -2 -27 3 -31 11 -3 9 -12 12 -20 9 -8 -3 -15 -1 -15 5 0 6 -4 7 -10 4 -5
-3 -16 -3 -22 2 -7 4 -22 9 -33 10 -10 2 -22 7 -25 11 -5 7 -27 12 -62 15 -10
1 -18 6 -18 11 0 5 -3 6 -7 3 -3 -4 -12 -2 -20 4 -7 7 -28 20 -46 29 -17 10
-31 24 -29 30 1 7 -2 18 -8 24 -5 7 -7 16 -3 19 3 4 2 7 -3 7 -13 0 -12 73 1
82 7 5 7 8 0 8 -10 0 -13 148 -3 165 3 6 5 56 4 113 -1 56 3 102 7 102 5 0 5
5 1 12 -6 10 -9 123 -4 123 8 0 5 82 -3 93 -5 6 -6 12 -2 12 4 0 2 6 -4 14 -9
11 -9 16 0 22 8 5 9 3 4 -6 -5 -8 -4 -11 2 -7 12 7 5 57 -8 57 -4 0 -6 9 -4
20 2 11 -1 20 -6 20 -6 0 -7 4 -4 10 3 6 1 10 -4 10 -6 0 -10 3 -10 8 4 27 -2
44 -16 38 -14 -5 -20 5 -16 27 1 5 -3 6 -8 3 -4 -3 -26 10 -47 30 -37 35 -38
38 -39 113 -2 78 -11 132 -23 141 -8 5 -29 49 -30 63 -1 4 -8 15 -17 24 -9 8
-13 23 -10 31 3 9 3 13 -1 10 -7 -8 -54 36 -54 51 0 5 -5 11 -12 13 -14 5 -20
38 -7 38 6 0 8 4 4 9 -3 6 3 14 12 20 10 5 20 22 21 37 1 15 5 30 10 33 8 7
14 25 18 66 1 17 7 44 12 60 5 17 8 42 7 57 -1 15 2 25 7 22 6 -4 8 13 5 40
-2 25 0 46 5 46 5 0 6 12 2 27 -3 16 -6 40 -7 55 0 15 -3 25 -6 24 -3 -2 -12
2 -19 10 -8 9 -9 14 -2 14 6 0 8 5 5 10 -3 6 3 10 15 10 14 0 19 4 14 12 -5 8
-2 9 10 5 9 -4 15 -3 12 2 -3 5 1 11 8 14 16 6 39 75 30 89 -3 4 0 8 7 8 8 0
8 4 2 13 -6 6 -9 20 -8 29 2 10 -1 20 -5 23 -5 3 -7 12 -3 20 3 8 1 15 -3 15
-5 0 -20 18 -33 40 -14 21 -28 37 -33 34 -4 -3 -8 0 -8 6 0 6 -4 9 -9 6 -15
-10 -6 23 12 45 10 11 15 24 12 29 -4 6 -1 10 4 10 6 0 10 3 9 8 0 4 2 15 7
25 4 10 3 29 -3 43 -9 18 -9 24 1 24 7 0 8 3 2 8 -19 14 -44 68 -27 59 9 -5
42 30 35 37 -4 3 1 6 11 6 9 0 14 5 11 10 -3 6 1 13 9 16 9 3 16 12 16 19 0 7
4 15 10 17 5 2 11 12 13 23 2 11 8 29 14 40 14 25 25 80 25 122 1 18 6 33 12
33 6 0 4 5 -4 10 -12 7 -12 10 -1 10 7 0 11 6 7 15 -3 8 0 15 7 15 7 0 8 3 2
8 -5 4 -11 16 -11 27 -4 66 -41 185 -57 185 -4 0 -5 5 -2 11 4 5 -1 19 -11 30
-9 10 -14 19 -10 19 4 0 -4 11 -18 23 -20 19 -23 26 -13 37 9 10 9 11 -1 5
-11 -6 -12 -3 -3 12 6 11 7 23 4 27 -3 3 -1 6 6 6 7 0 9 5 5 11 -3 6 0 15 7
20 8 5 9 9 3 9 -6 0 -10 12 -8 27 3 33 -13 66 -28 57 -6 -4 -9 -1 -6 7 5 15
-6 29 -37 46 -18 11 -18 12 -3 18 10 4 14 13 11 22 -5 12 -3 14 8 8 11 -7 12
-6 3 6 -17 22 -9 83 14 107 7 8 9 18 6 24 -4 7 -2 8 4 4 11 -6 16 6 13 27 0 4
4 7 9 7 6 0 10 4 10 9 0 5 8 26 17 47 9 22 16 42 15 47 -1 4 2 7 6 7 4 0 9 22
9 50 1 27 7 58 12 69 6 10 7 21 4 25 -4 3 -8 30 -10 58 -1 28 -6 54 -10 57 -5
3 -9 17 -9 31 -2 30 -7 53 -14 60 -3 3 -11 16 -19 29 -12 22 -11 26 5 38 13
10 14 13 3 13 -12 0 -12 2 1 10 8 5 11 10 6 10 -5 0 -4 6 1 13 10 12 13 29 15
80 0 15 5 27 11 27 5 0 5 6 -2 13 -6 8 -8 17 -4 20 3 4 1 7 -5 7 -6 0 -9 7 -5
15 3 9 -2 24 -11 34 -9 10 -13 21 -9 24 3 4 1 7 -5 7 -6 0 -9 6 -6 14 3 8 -2
17 -13 20 -10 3 -19 16 -19 31 -1 14 2 23 6 20 11 -7 20 20 15 45 -3 13 0 18
7 14 8 -5 9 3 5 24 -4 20 -2 32 6 36 8 3 8 5 -2 5 -11 1 -11 4 -1 16 8 9 8 15
2 15 -16 0 -9 73 8 87 8 7 11 13 6 13 -5 0 -1 10 10 22 10 12 13 18 5 13 -10
-5 -12 -4 -7 3 4 7 14 12 22 12 8 0 13 4 10 9 -3 5 1 14 9 21 8 7 13 16 10 20
-3 5 2 16 11 24 9 9 13 23 10 32 -3 8 -2 12 4 9 15 -9 12 58 -2 74 -11 11 -10
12 1 6 10 -6 12 -4 5 6 -9 14 -14 34 -16 57 -1 6 -5 12 -10 12 -4 0 -8 7 -8
15 0 8 -5 15 -11 15 -8 0 -8 5 1 15 9 10 9 15 1 15 -6 0 -11 9 -11 21 0 11 -4
17 -10 14 -5 -3 -10 1 -10 9 0 9 -7 16 -15 16 -14 0 -18 10 -12 28 1 4 5 6 10
4 4 -1 7 3 7 9 0 5 4 8 9 4 5 -3 16 4 24 15 7 11 17 17 20 13 4 -3 7 3 7 15 0
12 3 21 8 20 4 -2 8 0 10 4 1 4 13 19 26 33 16 17 23 36 22 55 -1 16 2 27 6
24 8 -5 11 5 11 38 0 10 4 15 9 12 6 -4 8 2 6 12 -5 27 49 76 87 79 6 1 9 7 7
14 -1 7 1 10 6 7 12 -7 54 23 47 34 -5 9 33 26 48 22 5 -1 6 2 3 7 -4 5 -2 12
4 16 6 4 8 10 5 15 -3 4 3 11 12 14 15 6 15 8 3 16 -13 8 -12 10 3 10 10 0 16
4 12 10 -3 5 3 18 14 29 13 13 16 21 8 25 -9 3 -9 5 0 5 7 1 10 8 6 18 -5 12
-3 14 7 8 10 -6 12 -4 7 7 -3 9 0 21 6 27 8 8 8 11 -2 11 -11 0 -11 3 0 17 12
14 12 16 0 8 -11 -6 -13 -3 -9 13 4 13 1 22 -5 22 -7 0 -5 5 3 10 8 5 11 10 5
10 -5 0 -10 25 -10 56 0 31 -3 58 -8 61 -4 3 -3 11 4 19 6 8 7 14 2 14 -5 0
-10 7 -10 15 0 8 4 12 9 9 4 -3 6 9 4 25 -2 23 1 31 13 32 10 0 12 2 3 6 -6 2
-9 10 -5 16 11 19 11 47 -1 40 -6 -4 -5 0 2 9 9 12 10 18 2 23 -8 5 -8 11 1
21 6 7 9 20 6 28 -3 8 -1 17 6 20 9 3 8 5 -1 5 -10 1 -10 6 -2 21 6 11 7 20 3
20 -4 0 -1 5 7 10 11 7 11 10 2 10 -10 0 -10 5 -1 21 8 16 8 20 -1 14 -9 -6
-9 -3 -1 12 7 15 6 25 -5 41 -14 20 -13 21 3 15 17 -7 17 -6 -1 21 -10 16 -13
25 -7 22 6 -4 11 -2 11 3 0 6 -6 11 -12 11 -9 0 -8 4 2 10 13 9 13 10 0 10
-13 0 -13 1 0 10 10 6 11 10 3 10 -7 0 -13 5 -13 11 0 5 4 7 10 4 6 -3 7 1 4
9 -3 9 -10 16 -15 16 -11 0 -7 23 6 32 6 5 5 8 -2 8 -7 0 -13 10 -13 23 0 13
-6 29 -12 36 -10 11 -10 13 0 7 6 -4 12 -3 12 3 0 5 -6 12 -12 14 -10 4 -10 6
0 6 10 1 10 5 -2 17 -9 8 -14 20 -10 25 3 5 2 9 -3 8 -25 -4 -37 1 -26 12 9 9
6 17 -12 31 -15 12 -22 26 -20 43 1 14 -1 25 -5 25 -4 0 -11 7 -14 16 -5 12
-2 15 11 10 15 -6 15 -4 -2 14 -11 12 -13 20 -6 20 8 0 9 5 3 17 -5 9 -6 29
-2 44 5 15 6 30 3 32 -10 11 -10 57 0 57 7 0 7 4 -1 12 -9 9 -7 14 6 25 16 12
16 13 -2 7 -16 -6 -17 -4 -7 14 14 26 14 35 0 26 -8 -4 -8 0 0 15 7 12 9 26 6
31 -3 5 -1 11 3 14 11 6 9 36 -3 55 -5 9 -4 12 3 7 6 -3 13 -2 17 4 3 5 1 10
-4 10 -6 0 -11 5 -11 11 0 5 4 8 9 5 5 -3 12 1 15 10 4 10 2 13 -7 8 -8 -5 -7
-2 2 9 7 9 10 17 7 17 -4 0 -2 9 4 20 13 25 20 91 8 84 -4 -3 -8 6 -8 20 0 14
-5 26 -11 26 -8 0 -8 4 0 13 8 10 7 17 -1 25 -9 9 -9 12 3 12 10 1 9 3 -4 11
-13 8 -15 14 -7 30 9 15 7 21 -5 25 -11 5 -13 10 -5 19 8 9 6 14 -5 19 -9 3
-14 2 -11 -3 3 -5 -1 -12 -10 -15 -8 -3 -12 -2 -9 4 3 6 -3 10 -13 10 -13 0
-21 9 -24 25 -3 14 -1 25 3 25 5 0 8 6 7 13 -2 6 2 11 9 10 7 -2 10 3 7 11 -3
7 2 21 11 30 9 9 13 16 8 16 -4 0 -8 40 -8 89 0 49 -3 87 -7 85 -5 -3 -8 2 -8
12 0 27 -42 104 -57 104 -8 0 -12 4 -9 9 4 5 0 12 -6 14 -10 4 -9 8 2 16 8 6
15 16 15 23 1 7 6 12 13 10 11 -2 14 4 11 24 0 3 9 14 21 24 12 11 19 24 15
29 -3 6 -3 11 2 11 4 0 17 12 27 27 11 14 15 23 9 20 -7 -4 -10 3 -9 18 0 14
3 25 6 25 8 0 6 87 -2 95 -4 4 -4 13 -2 20 3 7 1 16 -5 19 -6 4 -8 13 -5 21 4
8 -1 18 -10 21 -9 3 -16 12 -16 20 0 8 -4 14 -9 14 -4 0 -19 10 -32 23 -14 12
-31 22 -38 22 -8 0 -15 10 -16 23 -1 12 2 22 7 22 4 0 8 14 8 30 0 17 4 30 9
30 6 0 8 9 6 20 -2 11 0 20 4 20 4 0 7 15 6 33 -1 17 0 37 4 42 3 6 7 21 9 35
2 13 9 31 15 39 10 12 9 13 -3 6 -11 -6 -10 -3 3 12 9 11 17 26 17 34 0 12 2
11 10 -1 8 -13 10 -12 10 3 0 17 36 37 72 40 10 1 20 8 23 16 5 14 7 14 15 1
8 -13 10 -12 10 3 0 9 7 17 15 17 8 0 15 4 15 8 0 5 6 9 14 9 12 0 12 -4 -1
-23 -8 -13 -16 -31 -18 -41 -2 -10 -4 -18 -5 -18 -1 0 -3 -8 -5 -17 -2 -10 2
-18 8 -18 7 0 6 -4 -2 -9 -8 -5 -16 -20 -18 -33 -1 -13 -6 -34 -10 -48 -3 -14
-5 -29 -4 -34 1 -5 -4 -13 -11 -17 -7 -5 -8 -9 -3 -9 12 0 13 -49 2 -67 -5 -8
-3 -13 4 -13 8 0 8 -4 2 -12 -12 -15 -14 -45 -6 -68 3 -8 7 -51 9 -95 3 -43 9
-82 15 -86 8 -5 8 -8 0 -13 -9 -6 -10 -131 -1 -131 1 0 3 -15 4 -33 1 -18 8
-37 16 -42 8 -6 11 -10 6 -10 -5 0 -3 -6 3 -14 8 -9 8 -15 2 -18 -7 -2 -5 -14
4 -32 8 -15 15 -36 15 -45 0 -9 6 -23 13 -30 10 -11 9 -12 -3 -6 -12 6 -13 5
-2 -6 6 -7 12 -21 12 -31 0 -10 7 -30 16 -43 9 -13 12 -30 8 -36 -4 -8 -3 -9
4 -5 8 5 12 -1 12 -14 0 -12 7 -28 16 -37 8 -9 13 -22 10 -29 -3 -8 -1 -14 5
-14 6 0 8 -4 5 -9 -3 -5 1 -11 9 -15 8 -3 15 -16 15 -30 0 -13 7 -26 15 -30 8
-3 15 -12 15 -20 0 -7 7 -17 16 -20 8 -3 13 -9 10 -14 -6 -10 48 -72 63 -72 6
0 11 -7 11 -15 0 -9 8 -19 18 -22 9 -4 19 -10 22 -14 3 -4 23 -21 44 -38 21
-17 35 -31 31 -31 -4 0 10 -16 31 -35 21 -19 33 -35 28 -35 -6 0 -9 -14 -8
-31 1 -18 -3 -32 -12 -36 -8 -3 -14 -10 -14 -17 0 -6 -8 -23 -17 -36 -10 -14
-18 -31 -20 -39 -1 -8 -5 -17 -10 -20 -7 -6 -10 -13 -18 -51 -2 -8 -4 -16 -5
-17 -2 -2 -3 -6 -4 -10 -1 -5 -4 -12 -7 -18 -8 -13 -6 -92 3 -101 4 -4 3 -15
-3 -26 -5 -10 -7 -23 -4 -28 6 -9 12 -34 19 -78 1 -8 8 -17 15 -22 8 -4 11
-12 8 -16 -14 -23 70 -144 88 -126 3 4 6 3 5 -3 -5 -24 1 -35 21 -35 21 0 21
-1 3 -27 -9 -16 -26 -35 -36 -44 -10 -10 -18 -21 -16 -25 3 -13 -25 -63 -37
-64 -5 -1 -9 -8 -7 -16 2 -8 -2 -14 -7 -14 -6 0 -24 -28 -41 -62 -37 -75 -52
-101 -65 -110 -5 -4 -7 -8 -2 -8 4 0 0 -14 -8 -30 -9 -17 -13 -35 -10 -40 3
-6 1 -10 -5 -10 -6 0 -9 -4 -6 -9 3 -4 -4 -26 -14 -47 -11 -21 -18 -44 -15
-51 2 -7 0 -13 -6 -13 -6 0 -8 -4 -5 -8 3 -5 -2 -21 -10 -37 -8 -16 -12 -35
-10 -42 3 -7 1 -13 -5 -13 -6 0 -9 -6 -6 -14 3 -8 3 -17 -1 -21 -3 -3 -7 -18
-8 -33 0 -14 -6 -28 -12 -30 -9 -3 -9 -9 -2 -23 8 -13 7 -25 0 -39 -6 -11 -8
-25 -5 -30 3 -6 2 -10 -3 -10 -4 0 -8 -15 -7 -32 0 -18 -3 -39 -8 -45 -6 -9
-6 -13 2 -13 7 0 8 -8 0 -27 -6 -16 -10 -59 -9 -98 1 -89 0 -113 -4 -147 -2
-16 0 -28 5 -28 4 0 7 -10 6 -22 -2 -34 13 -88 25 -88 7 0 6 -5 -1 -14 -7 -8
-8 -17 -4 -19 5 -3 10 -20 11 -38 2 -18 7 -36 12 -39 6 -3 11 -19 12 -36 1
-16 5 -34 10 -40 5 -7 7 -16 6 -20 -2 -5 8 -27 21 -49 14 -22 24 -43 23 -47
-1 -5 3 -8 8 -8 6 0 10 -7 10 -15 0 -9 7 -18 15 -21 8 -4 15 -12 15 -19 0 -8
8 -21 18 -31 9 -10 17 -22 17 -28 0 -6 6 -11 13 -11 8 0 19 -8 26 -17 7 -10
17 -18 23 -18 14 0 63 -24 63 -31 0 -3 -9 -16 -20 -29 -12 -13 -18 -30 -16
-37 3 -7 0 -15 -6 -19 -7 -5 -8 -2 -3 6 5 9 4 11 -3 6 -7 -4 -12 -14 -12 -22
0 -8 -4 -12 -10 -9 -5 3 -10 -1 -10 -9 0 -9 -4 -16 -8 -16 -5 0 -9 -6 -9 -13
0 -16 -44 -77 -55 -77 -5 0 -7 -4 -4 -9 3 -5 0 -11 -8 -14 -9 -4 -12 -14 -9
-26 3 -12 1 -21 -6 -21 -6 0 -10 -3 -10 -7 4 -25 -3 -42 -20 -48 -14 -4 -18
-13 -15 -29 2 -15 -2 -26 -11 -30 -8 -3 -15 -14 -15 -24 0 -11 -9 -31 -21 -46
-11 -14 -17 -26 -14 -26 4 0 2 -6 -4 -13 -6 -8 -13 -24 -15 -38 -3 -13 -5 -24
-6 -24 -1 0 -3 -9 -5 -20 -2 -11 -8 -35 -13 -53 -6 -18 -9 -41 -7 -52 2 -11 0
-22 -5 -25 -5 -3 -7 -12 -3 -20 3 -8 0 -15 -6 -15 -6 0 -11 -9 -11 -19 0 -11
-6 -22 -12 -24 -9 -4 -10 -6 -1 -6 12 -1 8 -47 -6 -66 -4 -5 -7 -25 -6 -42 1
-18 -2 -33 -6 -33 -5 0 -8 -10 -8 -22 1 -13 -2 -45 -6 -73 -3 -27 -7 -87 -8
-132 -1 -46 -5 -83 -9 -83 -4 0 -4 -10 -2 -23 6 -26 7 -32 1 -70 -2 -15 0 -30
4 -33 5 -3 7 -18 4 -35 -3 -16 -1 -29 4 -29 5 0 7 -12 5 -28 -3 -15 -4 -34 -4
-42 0 -8 1 -25 1 -37 1 -13 5 -20 10 -17 5 3 9 1 9 -5 0 -5 -5 -13 -10 -16 -6
-4 -7 -11 -4 -17 4 -6 9 -23 10 -37 7 -44 9 -56 17 -69 5 -6 4 -12 -2 -12 -11
0 -9 -17 6 -45 5 -11 8 -26 6 -32 -3 -7 -1 -13 4 -13 8 0 12 -15 15 -57 1 -7
5 -13 10 -13 4 0 8 -15 8 -34 0 -19 6 -37 13 -39 9 -4 9 -6 0 -6 -10 -1 -10
-7 0 -28 6 -16 14 -30 17 -33 6 -6 29 -67 35 -90 2 -8 4 -15 5 -15 1 0 3 -7 5
-15 22 -86 30 -107 43 -117 9 -7 17 -23 19 -35 2 -12 8 -25 14 -29 6 -3 11
-12 12 -20 4 -25 18 -40 30 -32 8 4 8 2 -1 -9 -10 -13 -10 -17 3 -22 9 -3 13
-10 10 -16 -3 -5 -2 -10 2 -10 5 0 17 -15 28 -32 10 -18 26 -38 34 -45 9 -7
12 -13 8 -13 -4 0 3 -11 17 -23 14 -13 22 -28 18 -32 -4 -5 0 -6 9 -2 11 3 21
-3 29 -19 8 -13 19 -24 26 -24 7 0 16 -5 20 -12 5 -7 3 -8 -7 -3 -8 5 -3 -3
11 -16 14 -13 37 -31 53 -38 15 -8 27 -18 27 -23 0 -4 11 -8 25 -8 14 0 25 -4
25 -10 0 -5 7 -10 15 -10 8 0 15 -6 15 -12 0 -10 2 -10 9 0 6 10 10 10 20 -1
6 -8 27 -18 46 -21 19 -4 35 -11 35 -16 0 -5 8 -9 18 -9 9 1 43 -7 74 -15 31
-9 70 -15 85 -14 16 1 35 -2 42 -7 10 -6 12 -4 6 6 -6 11 -5 11 5 2 9 -8 19
-9 32 -2 11 6 18 6 18 0 0 -10 19 -9 37 2 6 4 14 3 18 -2 3 -6 16 -6 33 -1 15
5 44 11 65 15 20 3 37 11 37 17 0 9 3 9 11 1 11 -11 59 -5 59 7 0 8 29 21 59
26 7 1 23 11 35 22 11 11 27 17 34 15 6 -3 12 0 12 6 0 13 45 -2 45 -15 2 -32
65 -104 91 -104 7 0 14 -7 14 -16 0 -8 4 -13 9 -10 5 3 26 -1 47 -10 59 -25
155 -35 175 -18 12 11 18 11 29 1 10 -9 11 -9 6 1 -6 9 2 11 29 6 27 -4 35 -2
30 6 -4 7 1 14 14 17 11 3 18 9 15 14 -3 5 2 6 11 3 10 -4 24 2 36 15 22 23
34 28 23 9 -3 -7 5 -1 20 14 14 15 26 32 26 39 0 6 7 8 17 5 10 -4 14 -4 11 0
-4 3 4 18 18 32 13 15 24 34 24 43 0 9 9 24 20 34 11 10 17 22 14 26 -3 5 0 9
6 9 6 0 8 5 5 10 -3 6 -1 10 4 10 6 0 11 9 11 19 0 11 5 21 10 23 6 2 11 18
13 36 1 17 4 32 7 32 3 0 6 12 7 27 0 16 4 39 8 53 8 27 15 89 18 155 1 22 6
43 11 47 6 4 4 14 -5 24 -12 15 -12 16 0 9 10 -6 12 -4 6 5 -11 17 -15 70 -6
70 4 0 6 17 4 38 -3 33 -11 146 -16 230 -1 17 -6 32 -11 32 -4 0 -3 6 3 13 6
8 8 17 4 21 -4 4 -8 31 -10 61 -1 29 -8 68 -16 87 -7 18 -13 44 -12 58 1 14
-5 41 -13 60 -8 19 -16 48 -19 63 -2 16 -12 37 -21 48 -9 11 -16 23 -16 27 3
15 -49 97 -79 124 -18 15 -44 39 -59 54 -16 14 -28 22 -28 18 0 -4 -8 0 -17 9
-10 8 -25 17 -33 19 -8 2 -19 8 -25 14 -18 18 -65 35 -65 23 0 -8 -5 -7 -15 1
-8 7 -22 10 -30 6 -8 -3 -15 -2 -15 3 0 5 -19 8 -42 8 -24 0 -59 1 -78 2 -71
3 -155 -4 -162 -14 -5 -7 -13 -6 -25 1 -14 8 -22 7 -38 -8 -10 -10 -24 -16
-31 -14 -7 3 -15 2 -18 -2 -4 -3 -12 -7 -19 -8 -25 -4 -42 -9 -47 -14 -3 -3
-22 -14 -42 -24 -21 -11 -38 -23 -38 -28 0 -4 -7 -8 -15 -8 -8 0 -15 -7 -15
-15 0 -8 -11 -17 -25 -21 -14 -3 -23 -10 -20 -14 8 -13 -17 -60 -27 -54 -5 3
-19 -2 -30 -13 -12 -10 -18 -12 -14 -6 4 7 -2 22 -13 35 -12 12 -21 28 -21 35
0 7 -4 13 -10 13 -5 0 -9 6 -7 13 1 7 -6 11 -18 9 -11 -2 -17 -1 -13 4 4 4 2
14 -5 22 -10 13 -9 15 3 8 8 -4 3 2 -12 14 -15 11 -25 26 -22 33 2 7 -9 21
-26 32 -16 11 -30 25 -30 32 0 6 -9 15 -21 18 -12 4 -18 12 -15 21 3 8 1 14
-5 14 -5 0 9 18 31 40 22 22 47 40 54 40 8 0 16 7 20 15 3 8 12 15 21 15 8 0
15 5 15 11 0 5 5 7 10 4 6 -3 10 -2 10 2 0 11 45 68 80 101 14 14 24 29 22 34
-1 5 7 12 18 15 13 3 19 11 16 19 -3 8 -1 14 4 14 11 0 80 67 80 78 0 4 9 8
20 8 11 0 20 -4 20 -7 0 -4 16 -13 34 -20 19 -7 33 -15 31 -19 -2 -3 8 -7 21
-8 14 -1 32 -9 40 -17 9 -8 22 -15 30 -15 8 0 17 -6 20 -13 5 -13 17 -17 57
-18 9 0 15 -4 12 -10 -5 -7 7 -10 40 -9 3 0 18 -6 33 -13 15 -8 32 -12 39 -10
6 2 14 -1 18 -6 3 -6 19 -11 36 -11 16 0 29 -4 29 -8 0 -12 32 -11 48 1 8 6
12 6 12 -3 0 -8 13 -11 40 -8 22 2 40 0 40 -4 0 -3 14 -3 30 2 17 5 33 9 35 9
22 -1 92 16 113 27 15 8 33 14 40 14 6 0 12 5 12 11 0 5 5 7 10 4 6 -3 10 -1
10 5 0 6 4 9 9 6 5 -3 12 1 15 10 3 8 10 13 15 10 5 -3 16 5 25 19 9 14 23 25
31 25 8 0 15 6 15 14 0 8 5 16 11 18 5 2 11 10 13 18 1 8 7 24 13 35 6 11 13
24 15 30 1 5 6 9 9 8 7 -2 9 10 12 64 1 23 6 41 11 40 8 -2 19 141 17 218 -2
78 -5 105 -11 105 -4 0 -6 10 -5 22 1 13 -1 25 -5 28 -6 4 -13 36 -20 88 0 2
-4 1 -8 -2 -4 -2 -9 7 -10 22 -1 14 -8 29 -15 34 -6 4 -7 8 -2 8 6 0 3 5 -5
10 -13 8 -13 10 -1 10 11 0 10 4 -5 16 -10 8 -12 12 -4 8 11 -6 10 -2 -3 13
-9 11 -14 23 -10 26 3 4 1 7 -4 7 -13 0 -83 66 -83 78 0 12 -37 41 -44 35 -3
-4 -6 0 -6 7 0 7 -8 20 -18 29 -26 23 -65 107 -57 121 24 39 21 397 -5 464 -5
13 -6 27 -2 31 3 3 1 10 -6 14 -7 4 -14 22 -17 40 -2 18 -11 44 -20 58 -9 14
-14 34 -12 45 4 15 2 19 -12 15 -15 -4 -18 1 -16 24 2 17 -3 30 -12 34 -8 3
-13 12 -10 19 3 8 -1 17 -9 20 -9 3 -12 10 -9 16 7 11 -19 42 -28 34 -3 -3 -8
9 -12 26 -4 17 -18 38 -31 46 -13 9 -21 20 -18 25 3 5 -2 9 -10 9 -9 0 -16 9
-16 21 0 11 4 18 9 15 12 -8 105 39 133 66 13 13 40 32 62 42 28 13 35 20 25
27 -10 6 -6 11 14 18 15 6 27 15 27 20 0 6 11 22 25 37 13 14 22 30 20 34 -3
4 2 11 11 14 9 4 14 9 11 13 -4 3 3 21 14 40 12 18 19 40 16 48 -3 7 0 19 8
25 7 6 12 22 10 36 -1 13 2 27 7 30 5 3 8 16 7 27 0 12 0 24 1 27 1 3 3 12 5
20 2 8 7 26 10 40 9 35 10 90 2 123 -5 17 -3 27 3 27 6 0 8 5 5 11 -4 6 -8 25
-10 42 -1 18 -7 43 -12 57 -7 16 -7 27 -1 31 5 4 4 12 -5 20 -7 8 -12 19 -10
25 2 7 -3 18 -11 27 -8 8 -17 27 -19 43 -3 16 -9 28 -15 27 -6 -2 -14 7 -18
20 -9 29 -73 89 -87 80 -6 -3 -7 -1 -3 6 8 13 -18 44 -28 33 -4 -3 -11 0 -16
8 -5 7 -16 15 -25 16 -9 1 -25 10 -34 18 -10 9 -23 16 -29 16 -7 0 -12 5 -12
10 0 6 6 10 13 10 9 0 9 2 0 8 -16 10 5 52 44 88 15 14 29 29 29 32 7 32 20
54 41 67 14 9 22 19 19 22 -2 3 0 10 5 17 41 49 49 61 49 77 0 10 6 22 14 26
19 11 55 83 58 115 1 15 5 25 9 22 3 -2 14 18 24 44 10 26 22 52 27 58 5 7 11
22 13 35 3 12 8 25 13 28 5 3 9 20 10 36 0 17 8 44 16 60 9 17 16 37 16 46 0
8 5 20 11 26 8 8 8 13 0 17 -7 5 -8 14 -2 24 4 9 7 25 6 34 -2 10 1 20 5 23 5
3 7 14 5 25 -2 11 -1 20 4 20 4 0 7 10 7 23 0 12 4 32 8 45 4 12 3 22 -2 22
-5 0 -8 29 -6 65 2 40 -1 63 -6 60 -6 -4 -7 3 -1 17 13 34 5 148 -14 191 -4 9
-5 24 -2 32 4 8 2 17 -4 21 -6 3 -8 12 -5 19 3 8 0 16 -7 18 -9 3 -9 7 0 18
10 12 8 17 -8 28 -12 7 -18 15 -15 18 3 3 1 13 -4 23 -5 9 -12 31 -15 47 -2
17 -11 43 -19 58 -8 16 -13 32 -10 37 3 4 0 8 -6 8 -6 0 -8 5 -5 10 3 6 1 10
-5 10 -7 0 -10 7 -6 15 3 9 0 15 -10 15 -8 0 -13 4 -9 9 3 5 1 12 -5 16 -5 3
-10 14 -10 24 0 10 -12 31 -27 47 -15 16 -26 31 -26 34 1 3 -3 4 -9 2 -5 -1
-6 2 -3 8 4 6 -3 19 -14 30 -16 13 -18 20 -9 23 10 4 10 6 1 6 -7 1 -13 6 -13
11 0 6 -16 26 -35 46 -19 19 -35 39 -35 44 0 6 -7 10 -17 10 -9 0 -14 3 -10 6
3 3 -10 22 -29 42 -19 19 -34 39 -34 44 0 4 -7 8 -15 8 -8 0 -15 5 -15 10 0 6
-7 10 -15 10 -8 0 -15 6 -15 13 0 6 -12 21 -27 31 -17 13 -24 14 -19 5 4 -8
-4 -2 -17 13 -14 15 -44 35 -66 45 -23 10 -41 21 -41 25 0 5 -6 8 -14 8 -7 0
-25 11 -39 24 -14 13 -29 21 -32 18 -4 -4 -11 1 -16 11 -6 9 -14 15 -20 12 -5
-4 -9 -1 -9 5 0 6 -4 8 -10 5 -5 -3 -10 -1 -10 5 0 6 -5 8 -11 4 -6 -3 -14 -3
-18 2 -9 14 -64 38 -79 35 -8 -1 -20 3 -28 10 -7 6 -21 9 -29 5 -8 -3 -15 -1
-15 4 0 5 -18 13 -40 16 -22 4 -40 11 -40 17 0 5 -6 5 -14 -2 -10 -9 -16 -9
-21 -1 -4 6 -13 9 -21 6 -7 -3 -16 -1 -19 4 -3 4 -16 7 -30 5 -14 -1 -28 1
-30 5 -2 4 -46 6 -97 4 -113 -4 -118 -5 -118 -16 0 -5 -5 -6 -10 -3 -6 4 -17
1 -25 -5 -8 -7 -15 -9 -15 -5 0 5 -9 0 -19 -9 -15 -13 -20 -14 -24 -4 -4 10
-7 10 -14 1 -5 -7 -19 -14 -32 -16 -12 -2 -26 -9 -31 -17 -4 -7 -13 -9 -19 -6
-6 4 -11 3 -11 -2 0 -6 -10 -12 -23 -16 -12 -3 -31 -14 -42 -24 -11 -10 -26
-17 -32 -15 -7 3 -18 -5 -25 -16 -7 -12 -20 -21 -29 -21 -9 0 -29 -12 -44 -26
-15 -14 -39 -30 -52 -35 -13 -5 -21 -13 -18 -19 6 -9 -8 -14 -27 -11 -5 0 -8
-5 -8 -13 0 -16 -65 -68 -74 -59 -5 6 -7 -4 -5 -23 0 -3 -9 -14 -20 -23 -11
-10 -18 -21 -14 -25 3 -3 -1 -6 -9 -6 -20 0 -39 -23 -41 -49 -1 -11 -7 -23
-14 -25 -7 -3 -13 -12 -13 -20 0 -7 -11 -21 -25 -30 -14 -9 -23 -21 -20 -26 3
-5 1 -11 -5 -15 -6 -4 -8 -10 -5 -15 6 -9 -29 -50 -42 -50 -5 0 -9 -12 -10
-26 0 -14 -7 -31 -13 -38 -10 -8 -11 -8 -6 2 4 6 3 12 -3 12 -6 0 -8 6 -5 14
3 8 1 17 -5 20 -6 4 -8 13 -4 21 3 9 -1 23 -8 32 -12 14 -12 16 1 8 12 -6 13
-5 3 6 -7 7 -13 23 -13 35 0 13 -4 26 -10 29 -5 3 -10 15 -10 26 0 11 -4 17
-10 14 -6 -4 -10 5 -10 19 0 14 -5 26 -11 26 -6 0 -9 7 -5 15 3 8 1 15 -5 15
-6 0 -7 5 -4 10 3 6 1 10 -4 10 -6 0 -11 6 -11 13 0 7 -13 23 -30 35 -32 24
-41 64 -17 79 6 4 13 15 13 23 3 30 9 45 24 57 13 11 13 12 0 13 -9 0 -11 3
-5 8 6 4 12 14 13 22 2 8 6 24 9 35 3 11 6 37 7 58 1 20 4 37 7 37 8 0 4 155
-5 190 -3 14 -10 26 -15 28 -6 2 -7 10 -4 18 3 8 1 14 -5 14 -6 0 -6 9 1 25 7
14 18 25 25 25 6 0 12 7 12 15 0 8 6 15 13 15 18 1 67 77 61 95 -4 8 -1 15 5
15 6 0 11 9 11 21 0 13 4 18 13 13 9 -6 9 -5 0 8 -7 8 -9 18 -5 22 7 8 8 13
11 42 0 9 6 12 13 8 7 -4 8 -3 4 4 -13 22 -16 55 -5 68 6 7 8 18 4 25 -4 6 -1
15 6 20 8 5 9 9 3 9 -6 0 -9 14 -7 33 2 17 5 48 7 68 2 20 6 41 10 48 4 6 3
11 -2 11 -12 0 -10 43 3 52 7 5 6 8 -1 8 -12 0 -13 69 -1 87 4 6 3 14 -2 18
-6 3 -8 12 -5 20 3 8 2 20 -2 26 -12 20 -12 109 0 109 7 0 7 3 1 8 -14 10 -14
172 -1 172 6 0 5 4 -3 9 -24 16 8 29 102 40 5 1 5 6 2 12 -4 6 -1 9 8 7 8 -2
25 8 36 21 12 13 21 21 21 18 0 -4 8 1 18 11 11 9 17 20 15 25 -2 4 2 7 9 7
15 0 43 56 42 82 -1 10 3 15 7 12 5 -3 9 2 9 10 0 9 6 16 13 16 8 0 7 4 -3 10
-11 7 -11 10 -2 10 7 0 11 4 7 9 -3 5 -1 12 4 16 5 3 10 13 10 23 0 9 2 28 5
42 12 63 19 106 20 120 1 9 5 21 10 28 4 6 4 17 1 22 -3 6 -2 10 4 10 5 0 8
11 6 25 -1 14 1 25 5 25 7 0 9 7 13 55 1 17 6 36 10 43 5 6 5 12 2 12 -3 0 3
9 14 21 11 12 24 18 30 14 6 -3 11 -1 11 6 0 7 3 10 6 6 9 -9 44 25 37 36 -3
6 -1 7 4 4 6 -4 21 2 33 13 12 11 26 17 31 14 5 -3 6 1 3 9 -3 8 2 17 11 21 9
3 13 10 10 16 -3 5 -1 10 5 10 6 0 9 4 5 9 -3 5 -1 12 4 16 6 3 8 12 4 20 -3
8 -1 15 4 15 5 0 10 12 11 26 1 15 6 32 12 39 5 6 7 14 4 18 -3 3 -8 25 -10
49 l-5 43 81 -1 c53 -1 80 2 80 10 0 8 2 8 8 0 8 -12 92 -16 92 -4 0 4 11 6
25 5 14 -2 25 1 25 5 0 5 9 7 20 5 11 -2 37 3 58 12 20 9 40 16 45 15 4 -1 7
2 7 7 0 5 11 12 24 15 14 3 31 13 39 21 8 8 21 16 28 17 8 2 23 15 35 30 11
15 23 25 27 22 3 -3 8 3 11 14 4 11 16 22 27 25 12 3 18 10 14 16 -3 6 1 14 9
17 9 3 14 10 11 14 -3 5 3 13 12 19 10 6 14 11 9 11 -5 0 -3 7 4 15 6 8 9 19
5 25 -4 6 -1 9 7 8 7 -2 12 5 12 15 -1 9 2 17 7 17 5 0 9 6 9 14 0 8 6 16 13
19 8 3 15 20 16 39 3 55 4 58 13 58 4 0 7 18 5 40 -2 22 0 40 4 40 3 0 5 28 3
63 -5 81 -6 87 -14 87 -4 0 -7 7 -8 15 -1 8 -3 22 -4 30 -1 8 -5 15 -10 15 -4
0 -7 3 -7 8 4 21 -2 42 -10 38 -10 -7 -9 20 2 30 4 4 7 16 7 26 0 10 5 18 12
18 6 0 9 3 5 6 -3 3 3 31 14 61 10 30 16 59 14 63 -3 5 -1 11 5 15 6 4 8 11 5
16 -4 5 -1 9 5 9 6 0 9 4 5 9 -3 5 -1 12 5 16 5 3 10 17 10 30 0 13 4 25 10
27 5 2 11 12 13 23 1 11 6 26 10 33 5 7 3 12 -4 12 -9 0 -9 4 1 15 6 8 9 19 5
25 -3 5 -2 10 4 10 5 0 8 8 6 18 -1 9 1 22 5 27 7 10 9 22 12 78 1 15 5 27 9
27 3 0 6 43 5 95 -1 57 3 95 9 96 5 0 1 4 -10 9 -11 5 -15 9 -9 9 13 1 15 31
2 31 -5 0 -7 4 -3 9 3 5 0 15 -7 23 -18 19 -23 52 -6 43 7 -5 4 2 -7 13 -35
37 -42 47 -37 60 2 6 -3 12 -12 12 -9 0 -16 4 -16 10 0 13 -52 60 -67 60 -7 0
-13 5 -13 12 0 6 -3 8 -7 5 -3 -4 -13 -1 -21 6 -13 10 -14 9 -7 -3 5 -9 0 -8
-13 4 -12 11 -22 15 -22 11 0 -5 -5 -4 -12 3 -7 7 -22 12 -35 12 -13 0 -23 5
-23 11 0 5 -4 8 -9 4 -5 -3 -15 1 -23 8 -7 8 -21 13 -31 11 -9 -1 -17 2 -17 7
0 6 -4 8 -9 5 -4 -3 -16 1 -27 8 -10 8 -24 12 -31 9 -7 -3 -13 -1 -13 4 0 5
-10 9 -22 10 -11 1 -24 6 -27 10 -3 4 -15 8 -26 8 -11 0 -26 5 -33 12 -7 7
-20 13 -28 13 -8 0 -14 3 -14 8 0 4 -17 8 -37 10 -20 1 -41 8 -45 15 -4 6 -8
8 -8 3 0 -5 -7 -3 -15 4 -8 6 -18 9 -24 6 -5 -3 -11 -2 -13 3 -1 6 -16 13 -33
16 -46 9 -49 10 -60 16 -15 8 -159 4 -173 -5 -7 -4 -16 -4 -22 -1 -6 3 -10 2
-10 -4 0 -5 -18 -9 -40 -9 -22 0 -40 5 -40 10 0 5 -4 6 -10 3 -5 -3 -22 0 -37
7 -15 8 -41 13 -58 13 -37 -1 -105 -26 -105 -38 0 -5 -9 -7 -20 -4 -13 3 -21
-1 -25 -14 -4 -11 -10 -17 -14 -15 -9 6 -41 -30 -41 -45 0 -5 -4 -8 -9 -4 -6
3 -27 -19 -48 -49 -21 -31 -46 -58 -55 -61 -10 -4 -18 -11 -18 -16 0 -15 -26
-39 -34 -32 -3 4 -6 1 -6 -6 0 -7 -4 -9 -10 -6 -5 3 -10 2 -10 -2 0 -5 -11 -9
-25 -9 -14 0 -25 4 -25 9 0 4 -4 6 -9 3 -4 -3 -16 1 -27 8 -10 8 -24 12 -31 9
-7 -3 -13 -1 -13 4 0 6 -17 8 -37 6 -21 -2 -55 -5 -75 -6 -21 -1 -38 -6 -38
-10 0 -5 -6 -7 -14 -4 -8 3 -23 -3 -35 -14 -12 -11 -21 -18 -21 -15 0 3 -12
-6 -26 -19 -15 -14 -31 -22 -37 -18 -6 3 -7 1 -3 -5 6 -10 -15 -54 -34 -72 -3
-3 -5 -11 -6 -17 -2 -30 -5 -34 -14 -28 -7 4 -7 -3 0 -19 6 -18 6 -26 -1 -26
-6 0 -9 -7 -6 -15 4 -8 2 -17 -2 -19 -4 -3 -7 -22 -6 -42 1 -22 -4 -38 -12
-41 -7 -3 -11 -8 -10 -12 2 -3 -9 -19 -25 -34 -15 -15 -28 -25 -28 -21 0 3 -6
2 -12 -3 -7 -5 -22 -9 -33 -9 -11 1 -28 -8 -38 -19 -10 -11 -16 -13 -12 -5 4
8 -1 6 -9 -4 -9 -11 -16 -16 -16 -10 0 5 -5 2 -10 -6 -5 -8 -13 -15 -17 -15
-14 0 -53 -39 -53 -53 0 -7 -4 -10 -10 -7 -5 3 -10 2 -10 -4 0 -21 -51 -64
-77 -65 -16 -1 -34 -5 -42 -10 -10 -7 -12 -6 -6 3 4 8 -4 6 -18 -4 -15 -9 -31
-14 -36 -10 -6 3 -19 -3 -31 -15 -11 -11 -20 -17 -20 -14 0 4 -6 1 -13 -5 -8
-6 -17 -8 -20 -4 -4 3 -9 -2 -13 -11 -3 -9 -10 -13 -15 -10 -5 3 -9 1 -9 -4 0
-5 -11 -14 -25 -20 -14 -6 -25 -18 -25 -27 0 -8 -7 -15 -15 -15 -9 0 -12 -6
-9 -15 4 -8 1 -15 -5 -15 -6 0 -11 -7 -11 -15 0 -8 -4 -15 -9 -15 -5 0 -12
-11 -15 -25 -4 -14 -11 -25 -17 -25 -6 0 -7 -4 -4 -10 3 -5 1 -10 -4 -10 -6 0
-11 -9 -11 -19 0 -11 -5 -23 -10 -26 -8 -5 -7 -12 2 -23 10 -12 10 -14 1 -8
-12 6 -18 -11 -14 -36 0 -5 -4 -8 -9 -8 -6 0 -8 -11 -4 -25 3 -14 2 -25 -3
-25 -5 0 -8 -18 -6 -41 2 -30 0 -38 -9 -33 -10 6 -10 4 0 -8 7 -9 13 -36 15
-62 1 -25 6 -46 10 -46 5 0 5 -4 2 -10 -3 -5 -1 -10 4 -10 6 0 10 -3 10 -7 -1
-5 0 -11 1 -15 1 -5 3 -14 4 -20 1 -7 8 -12 16 -10 11 3 11 0 0 -12 -8 -11 -9
-16 -1 -16 6 0 11 -7 11 -15 0 -8 9 -19 20 -25 12 -6 20 -21 20 -36 0 -14 4
-23 9 -19 11 6 9 -44 -2 -63 -5 -6 -5 -17 -1 -24 4 -6 3 -8 -3 -5 -13 8 -23
-58 -12 -75 5 -7 3 -16 -4 -20 -9 -5 -9 -10 0 -19 8 -8 9 -19 2 -36 -5 -13 -5
-22 -1 -19 5 3 10 -11 11 -32 2 -20 3 -45 4 -54 1 -10 5 -18 9 -18 4 0 8 -7 8
-16 0 -8 -4 -13 -9 -10 -5 3 -12 -1 -15 -9 -3 -8 -9 -15 -13 -14 -23 4 -43 -2
-38 -11 6 -9 -7 -14 -21 -7 -7 3 -39 -55 -36 -65 1 -5 -3 -8 -9 -8 -6 0 -8 -7
-5 -16 4 -9 2 -13 -5 -8 -7 4 -10 1 -7 -7 3 -8 -1 -29 -9 -47 -10 -24 -11 -37
-4 -46 6 -7 8 -16 4 -20 -12 -11 -11 -56 1 -56 7 0 7 -3 1 -8 -12 -9 -15 -62
-4 -62 5 0 9 -8 9 -19 0 -21 23 -44 34 -33 4 4 6 0 4 -8 -1 -8 7 -19 20 -25
29 -13 43 -51 42 -115 -1 -19 -1 -54 -1 -77 0 -24 -4 -45 -7 -47 -4 -2 -7 -27
-6 -55 1 -28 -2 -51 -6 -51 -4 0 -6 -14 -4 -32 2 -17 -2 -38 -9 -46 -10 -13
-9 -14 3 -7 12 7 13 6 4 -6 -6 -8 -11 -29 -9 -46 1 -18 -2 -33 -7 -33 -5 0 -7
-4 -3 -9 3 -5 1 -12 -5 -16 -5 -3 -10 -2 -10 4 0 10 -19 9 -37 -2 -7 -5 -13
-5 -13 -1 0 3 -7 1 -15 -6 -8 -7 -15 -9 -15 -6 0 4 -15 -3 -32 -15 -39 -28
-62 -49 -52 -49 3 0 1 -7 -6 -16 -8 -8 -15 -30 -17 -47 -2 -18 -6 -50 -8 -72
-3 -22 -6 -98 -6 -170 -1 -85 -5 -133 -13 -137 -7 -5 -7 -8 0 -8 7 0 11 -29
11 -76 1 -42 5 -79 11 -83 5 -3 8 -14 6 -23 -1 -10 3 -18 9 -18 5 0 7 -3 4 -7
-4 -3 -3 -11 2 -17 12 -16 20 -56 11 -56 -4 0 -11 -7 -14 -16 -3 -9 -2 -12 4
-9 6 4 2 -8 -8 -27 -22 -39 -22 -37 -22 -153 0 -126 0 -129 8 -135 4 -3 13
-16 20 -29 10 -17 10 -21 1 -16 -8 5 -10 4 -5 -3 4 -7 14 -12 22 -12 8 0 12
-4 9 -10 -3 -5 2 -22 12 -37 9 -15 13 -25 9 -21 -4 4 -21 -6 -36 -22 -15 -16
-31 -26 -36 -22 -4 4 -4 1 0 -6 4 -7 2 -19 -4 -27 -7 -8 -9 -15 -4 -15 5 0 4
-4 -1 -8 -12 -8 -39 -64 -37 -74 1 -5 -3 -8 -9 -8 -8 0 -8 -5 1 -15 9 -11 9
-15 1 -15 -7 0 -9 -4 -6 -10 3 -5 1 -10 -5 -10 -6 0 -8 -4 -5 -10 3 -5 3 -16
-1 -22 -5 -7 -9 -19 -10 -28 -5 -32 -10 -50 -16 -56 -4 -3 -3 -16 2 -29 5 -14
5 -26 -2 -33 -8 -8 -7 -16 3 -28 12 -16 12 -17 -1 -9 -13 7 -13 6 -2 -7 7 -9
12 -20 11 -24 -5 -29 2 -54 14 -48 9 6 9 5 0 -7 -16 -19 -17 -31 -3 -39 6 -4
12 -17 13 -28 1 -12 5 -22 10 -22 5 0 7 -7 3 -15 -3 -8 1 -21 9 -29 8 -7 11
-16 8 -20 -4 -3 1 -6 10 -6 10 0 17 -7 17 -15 0 -8 4 -15 8 -15 4 0 8 -9 8
-19 0 -11 -3 -18 -7 -15 -4 2 -12 -3 -19 -11 -7 -8 -9 -15 -4 -15 5 0 -2 -7
-14 -16 -12 -8 -22 -22 -22 -30 0 -8 -4 -13 -9 -10 -11 7 -23 -22 -15 -35 3
-5 1 -8 -4 -7 -6 2 -11 -1 -13 -7 -1 -5 -9 -16 -18 -23 -9 -8 -10 -10 -3 -7
11 6 11 3 0 -14 -7 -12 -16 -21 -20 -21 -3 0 -5 -8 -3 -17 1 -10 -2 -24 -8
-30 -6 -9 -6 -13 2 -13 9 0 9 -5 1 -20 -6 -12 -13 -38 -15 -58 -2 -20 -5 -49
-8 -65 -2 -15 -2 -29 2 -31 3 -2 6 -41 6 -85 0 -45 2 -81 5 -81 3 0 7 -23 8
-51 0 -28 5 -56 9 -63 5 -6 8 -23 7 -38 0 -16 4 -28 10 -28 6 0 4 -5 -4 -10
-11 -7 -11 -10 -2 -10 7 0 10 -4 7 -10 -3 -5 -1 -10 5 -10 6 0 8 -4 5 -10 -3
-5 -1 -10 5 -10 6 0 8 -4 5 -10 -3 -5 -2 -10 3 -10 5 0 9 -7 9 -15 0 -8 -4
-15 -9 -15 -4 0 -8 -6 -8 -13 0 -8 -12 -20 -27 -28 -15 -8 -36 -21 -46 -29
-21 -17 -71 -114 -54 -103 9 5 9 3 0 -8 -7 -8 -15 -30 -18 -49 -3 -19 -8 -43
-11 -52 -3 -10 0 -18 6 -18 6 0 9 -4 6 -9 -4 -5 0 -12 6 -14 9 -4 9 -6 1 -6
-6 -1 -9 -10 -6 -21 3 -11 10 -17 17 -13 6 4 5 -1 -3 -10 -9 -11 -10 -17 -2
-17 6 0 11 -9 11 -20 0 -11 5 -20 11 -20 8 0 8 -5 -1 -15 -9 -10 -9 -15 -1
-15 6 0 11 -5 11 -11 0 -11 -25 -39 -35 -39 -12 0 -64 -57 -58 -64 4 -3 1 -6
-6 -6 -9 0 -12 -9 -9 -25 3 -13 2 -22 -2 -20 -4 3 -10 -4 -13 -15 -3 -11 0
-20 6 -20 8 0 8 -3 2 -8 -5 -4 -11 -14 -13 -22 -5 -22 -24 -42 -31 -33 -3 4
-16 14 -28 21 -19 10 -23 10 -23 0 0 -9 -3 -9 -8 -3 -8 12 -83 38 -107 38 -8
0 -15 4 -15 9 0 5 -11 6 -25 4 -13 -3 -27 0 -31 5 -3 5 -10 7 -15 4 -5 -4 -9
-2 -9 2 0 5 -16 10 -36 11 -50 4 -76 24 -81 64 -2 18 -5 46 -6 61 -2 16 1 31
6 34 6 3 2 12 -8 20 -11 7 -13 13 -7 13 7 0 12 4 12 10 0 18 34 50 53 50 11 0
15 4 11 12 -5 8 -2 9 9 5 10 -3 17 -2 17 4 0 6 5 9 12 7 11 -4 45 28 103 95 8
9 15 24 15 32 0 8 4 15 9 15 5 0 8 11 7 25 -2 14 3 36 10 50 7 14 9 23 4 20
-6 -4 -10 -2 -10 4 0 5 4 12 9 16 5 3 8 23 7 45 -2 25 1 37 7 33 6 -4 7 -1 1
8 -13 21 -14 39 -2 39 6 0 5 6 -2 15 -8 9 -9 15 -2 15 6 0 9 9 7 20 -2 11 2
20 8 20 8 0 8 3 2 8 -5 4 -10 21 -10 37 0 17 5 33 10 37 7 5 7 8 0 8 -6 0 -10
34 -10 81 -1 59 -5 83 -15 89 -8 6 -11 10 -6 10 5 0 2 8 -5 17 -12 15 -12 16
1 8 12 -6 12 -5 3 5 -6 7 -9 19 -6 26 3 8 0 14 -6 14 -6 0 -11 7 -11 15 0 8
-6 15 -12 15 -9 0 -8 4 2 10 8 5 12 10 7 10 -4 0 0 11 9 25 9 14 13 25 9 25
-4 0 -2 7 5 15 7 8 10 22 6 30 -3 9 -2 14 3 10 5 -3 8 13 7 35 -2 22 1 40 6
40 5 0 7 8 4 18 -3 9 -1 24 4 32 6 9 5 19 -3 29 -9 11 -9 15 1 18 6 3 9 10 5
15 -3 6 -7 66 -8 132 -1 67 -3 122 -5 124 -7 6 -4 28 5 34 6 5 5 8 -3 8 -12 0
-37 47 -34 63 1 4 -3 7 -9 7 -5 0 -7 5 -4 10 5 9 -24 15 -48 11 -5 -1 -6 3 -2
9 3 5 3 10 -2 11 -14 1 -47 8 -68 13 -11 2 -22 5 -25 5 -3 1 -5 28 -4 61 1 37
-2 60 -9 60 -6 0 -8 3 -4 6 3 4 0 13 -8 20 -11 11 -12 21 -3 45 6 17 17 33 24
36 8 3 14 12 14 20 0 8 4 12 9 9 7 -5 20 28 26 64 0 3 4 11 8 18 5 6 6 12 3
12 -3 0 -1 11 4 24 5 13 6 27 2 31 -4 4 -7 10 -7 13 -1 4 -5 25 -10 47 -4 22
-8 43 -7 48 1 4 -2 6 -7 5 -5 -2 -8 0 -7 3 0 4 -7 16 -18 28 -16 18 -17 21 -3
27 8 3 18 17 22 31 3 14 9 23 12 19 9 -9 74 114 66 126 -2 5 0 8 6 8 5 0 8 9
6 20 -2 11 0 22 6 25 5 4 6 18 3 32 -5 20 -4 24 6 18 9 -6 11 -4 4 6 -4 8 -7
26 -5 41 1 18 -2 28 -11 28 -10 0 -9 3 2 10 13 8 13 13 -2 38 -10 16 -15 32
-11 36 3 3 2 6 -4 6 -14 0 -12 24 4 38 7 7 13 9 13 5 0 -4 6 3 13 17 8 14 24
42 36 63 12 21 16 35 9 31 -7 -4 -2 5 11 19 13 15 21 33 18 41 -4 9 -2 16 4
16 6 0 8 4 5 9 -4 5 -1 11 5 13 7 2 12 15 13 28 1 14 5 31 9 38 5 6 5 17 2 22
-3 6 -1 10 5 10 7 0 9 7 6 15 -3 9 0 18 7 21 7 2 12 17 12 32 -1 15 2 32 6 37
7 11 8 17 13 80 1 22 5 47 9 55 3 8 5 22 5 30 -1 23 6 44 17 52 6 5 6 8 -1 8
-14 0 -10 73 5 78 6 2 8 9 4 15 -10 16 -10 57 0 57 5 0 7 6 4 13 -3 8 -1 20 3
27 5 8 6 19 2 24 -3 6 -7 39 -9 74 -1 35 -7 70 -13 77 -5 6 -7 15 -3 18 3 4 0
13 -7 22 -7 8 -9 15 -6 15 4 0 1 7 -8 15 -8 9 -13 22 -9 31 3 9 0 14 -8 12 -8
-2 -13 3 -11 10 1 8 -2 11 -7 7 -6 -3 -15 5 -22 17 -7 13 -15 25 -18 28 -3 3
-11 14 -18 25 -6 11 -15 19 -20 18 -5 -1 -10 4 -10 12 0 8 5 11 11 8 6 -4 5 1
-3 10 -11 14 -11 20 -1 32 7 8 10 26 8 40 -3 14 -1 25 5 25 5 0 7 9 4 20 -3
11 -1 23 5 26 5 3 7 17 4 30 -4 16 -2 24 6 24 10 0 10 2 0 9 -11 7 -10 9 3 15
10 3 13 11 8 18 -10 17 -13 38 -5 38 4 0 8 16 9 37 1 20 8 40 15 44 9 6 9 9 1
9 -6 0 -10 8 -8 18 2 9 4 17 6 17 1 0 3 9 5 20 5 36 13 65 20 77 5 7 3 8 -7 3
-11 -7 -12 -6 -3 6 6 8 10 24 9 37 -1 12 2 22 7 22 4 0 6 27 4 59 -2 33 0 65
5 72 4 7 3 19 -2 25 -7 8 -7 14 0 18 12 8 -7 56 -21 56 -5 0 -7 4 -3 9 8 14
-27 81 -42 81 -8 0 -11 5 -8 10 4 6 2 17 -5 25 -6 7 -7 16 -2 19 5 3 8 28 8
56 -1 27 2 50 7 50 4 0 6 4 3 9 -4 5 0 12 6 14 10 4 10 6 0 6 -8 1 -10 6 -5
14 10 17 14 35 18 87 1 24 8 46 14 48 6 2 8 9 4 15 -4 6 -7 34 -8 61 -1 28 -3
51 -4 51 -2 0 -11 50 -13 73 -1 6 -5 12 -10 12 -4 0 -8 11 -8 25 0 14 -5 25
-11 25 -5 0 -7 5 -4 10 3 6 -1 13 -10 16 -12 5 -13 9 -4 20 6 8 7 14 2 14 -5
0 -10 7 -10 15 0 8 4 15 8 15 4 0 10 7 13 16 4 9 2 13 -5 8 -6 -3 -4 5 5 18 9
14 13 28 9 31 -3 4 -1 7 6 7 8 0 11 7 7 15 -3 8 -2 15 2 15 4 0 12 11 19 25 6
14 8 23 4 20 -4 -2 -8 2 -8 10 0 8 5 13 11 12 5 -1 11 8 12 21 1 12 3 23 4 25
5 4 11 79 15 179 2 79 0 98 -12 102 -8 4 -13 13 -9 21 3 8 -1 21 -9 28 -10 11
-11 17 -2 26 8 8 8 11 -1 11 -7 0 -12 9 -12 21 0 11 -4 18 -9 15 -5 -3 -12 5
-15 19 -4 14 -13 25 -22 25 -8 0 -12 5 -9 10 3 6 -1 13 -9 16 -9 3 -16 12 -16
20 0 12 -6 16 -26 13 -3 0 -14 10 -25 22 -10 12 -19 18 -19 13 0 -5 -5 -1 -11
8 -5 10 -16 15 -24 12 -8 -4 -15 -1 -15 6 0 6 -4 9 -9 6 -5 -4 -11 -1 -13 5
-2 7 -13 13 -24 14 -10 1 -28 6 -39 12 -11 6 -26 8 -32 6 -7 -3 -13 -1 -13 4
0 5 -12 9 -27 10 -40 2 -83 9 -90 16 -3 4 -15 2 -26 -4 -15 -8 -18 -8 -12 1 5
9 1 10 -14 5 -11 -3 -21 -3 -21 2 0 5 -16 8 -35 8 -19 -1 -35 1 -35 5 0 4 -6
7 -12 8 -7 0 -33 3 -58 6 -117 15 -138 17 -175 17 -57 -1 -88 -5 -104 -15 -11
-7 -12 -6 -6 5 8 12 6 12 -8 0 -9 -7 -17 -10 -17 -7 0 4 -7 0 -16 -8 -8 -9
-20 -14 -25 -11 -5 4 -9 2 -9 -4 0 -7 -10 -6 -30 0 -16 6 -30 15 -30 20 0 4
-7 6 -15 3 -8 -4 -15 -1 -15 5 0 6 -7 8 -15 5 -8 -4 -15 -2 -15 4 0 5 -11 7
-25 4 -14 -2 -25 0 -25 4 0 5 -36 9 -80 9 -44 0 -80 -2 -80 -5 0 -3 -14 -6
-32 -7 -35 -1 -56 14 -53 37 1 8 -6 31 -16 50 -11 19 -19 31 -19 28 0 -4 -17
1 -37 12 -21 10 -45 20 -53 22 -8 2 -20 8 -27 14 -14 13 -71 12 -93 -1 -8 -5
-11 -4 -7 2 6 10 -90 12 -108 1 -6 -3 -18 -4 -27 -3 -10 2 -18 -1 -18 -6 0 -6
-5 -7 -10 -4 -6 4 -18 1 -26 -6 -8 -6 -17 -9 -21 -6 -3 3 -18 0 -34 -8 -34
-18 -42 -19 -33 -2 5 8 2 8 -9 -2 -9 -7 -17 -10 -17 -5 0 5 -4 4 -8 -3 -4 -6
-20 -14 -35 -17 -45 -8 -68 -17 -62 -25 2 -5 -7 -6 -20 -3 -14 2 -25 0 -25 -6
0 -6 -9 -9 -20 -7 -11 2 -20 -1 -20 -6 0 -6 -6 -9 -12 -6 -7 2 -19 -3 -26 -12
-8 -9 -11 -10 -7 -3 7 14 -11 17 -20 2 -4 -6 -11 -8 -16 -5 -5 4 -9 -1 -9 -9
0 -10 -6 -13 -15 -9 -9 3 -14 8 -11 10 3 3 -11 34 -30 70 -19 36 -32 68 -29
71 2 3 0 11 -6 19 -6 7 -8 13 -5 13 4 0 0 7 -8 16 -9 8 -14 20 -11 25 4 5 1 9
-6 9 -7 0 -9 3 -6 7 4 3 0 14 -8 23 -8 9 -16 26 -18 39 -2 12 -10 30 -18 39
-17 20 -30 48 -36 76 -2 10 -12 31 -24 47 -11 16 -17 29 -14 29 4 0 -1 7 -9
16 -9 8 -14 19 -11 24 3 5 1 10 -4 12 -5 1 -11 10 -13 18 -2 8 -15 27 -30 43
-15 15 -24 27 -20 27 4 0 2 4 -4 8 -6 4 -18 21 -27 37 -20 38 -93 116 -101
108 -3 -4 -6 -1 -6 5 0 19 -98 64 -128 58 -29 -4 -103 -35 -88 -36 5 0 -3 -11
-17 -24 -14 -13 -23 -27 -20 -30 4 -3 1 -6 -5 -6 -7 0 -11 -3 -10 -7 3 -12
-23 -57 -39 -66 -7 -5 -11 -12 -8 -17 3 -5 -4 -15 -15 -23 -11 -7 -17 -17 -13
-20 3 -4 1 -7 -5 -7 -7 0 -11 -4 -9 -9 1 -5 -9 -21 -23 -37 -14 -16 -27 -33
-28 -39 -1 -5 -10 -19 -19 -30 -26 -30 -56 -74 -83 -125 -14 -25 -29 -48 -35
-52 -5 -4 -6 -8 -1 -8 5 0 -1 -8 -12 -19 -12 -10 -22 -24 -22 -30 0 -7 -6 -18
-12 -25 -7 -8 -20 -24 -28 -36 -8 -12 -21 -28 -27 -36 -7 -7 -13 -20 -13 -29
0 -8 -7 -18 -15 -21 -8 -4 -13 -10 -10 -14 3 -5 -2 -13 -11 -18 -9 -5 -16 -13
-16 -18 -1 -15 -32 -78 -44 -89 -7 -5 -26 -40 -44 -77 -18 -38 -36 -66 -40
-63 -4 3 -11 -7 -15 -22 -3 -14 -18 -45 -33 -67 -15 -23 -38 -63 -52 -91 -14
-27 -29 -53 -35 -57 -5 -4 -7 -8 -3 -8 3 0 -16 -43 -43 -96 -27 -53 -46 -100
-43 -105 3 -5 0 -9 -5 -9 -6 0 -10 -3 -9 -7 1 -5 -6 -23 -15 -40 -10 -18 -15
-33 -12 -33 3 0 -1 -13 -9 -29 -9 -16 -12 -31 -9 -35 4 -3 1 -6 -6 -6 -7 0
-10 -4 -6 -9 3 -5 1 -12 -5 -16 -6 -4 -8 -10 -5 -15 3 -5 1 -11 -5 -15 -5 -3
-10 -14 -10 -23 -1 -9 -9 -35 -20 -57 -10 -22 -16 -43 -14 -47 3 -5 0 -8 -6
-8 -6 0 -9 -4 -5 -9 3 -5 1 -12 -4 -15 -4 -3 -8 -17 -8 -32 0 -14 -5 -35 -11
-47 -6 -12 -14 -35 -18 -52 -4 -16 -8 -34 -10 -40 -2 -5 -5 -19 -8 -30 -3 -11
-10 -35 -15 -54 -6 -19 -9 -37 -6 -39 2 -3 0 -13 -6 -24 -10 -19 -21 -60 -22
-85 0 -7 -5 -13 -10 -13 -5 0 -7 -7 -3 -15 3 -8 1 -27 -4 -42 -5 -15 -11 -39
-13 -53 -2 -14 -7 -33 -11 -42 -4 -9 -5 -21 -2 -27 4 -5 2 -12 -4 -16 -6 -3
-8 -17 -6 -30 2 -13 2 -26 -2 -30 -7 -7 -12 -42 -15 -97 -1 -21 -4 -38 -7 -38
-3 0 -7 -21 -8 -47 -5 -102 -6 -113 -12 -113 -3 0 -6 -18 -5 -40 1 -22 -1 -40
-5 -40 -11 0 -15 -581 -5 -740 6 -106 12 -165 14 -165 2 0 5 -25 7 -55 5 -67
12 -125 14 -125 3 0 11 -41 14 -75 2 -19 6 -42 10 -52 4 -9 9 -31 11 -50 2
-18 4 -34 5 -35 2 -2 4 -7 5 -13 1 -5 4 -13 5 -17 1 -5 3 -12 5 -18 1 -5 3
-12 4 -15 5 -9 11 -45 15 -79 2 -18 8 -36 13 -40 5 -3 9 -13 9 -21 0 -8 7 -28
14 -45 7 -16 14 -33 15 -37 2 -5 4 -10 5 -13 1 -3 3 -8 4 -12 1 -5 9 -24 19
-43 9 -19 18 -44 20 -55 4 -29 31 -85 40 -85 5 0 6 -4 3 -8 -3 -5 3 -18 12
-28 18 -19 33 -48 38 -74 2 -8 8 -16 13 -18 6 -2 11 -10 11 -18 0 -8 7 -14 15
-14 8 0 14 -3 14 -7 -1 -5 0 -11 1 -15 1 -5 3 -12 4 -16 2 -12 88 -151 104
-168 7 -8 10 -14 5 -14 -4 0 1 -7 11 -15 11 -8 16 -15 12 -15 -5 0 0 -12 9
-27 17 -26 27 -99 16 -118 -3 -5 -6 -19 -6 -30 0 -11 -4 -25 -8 -31 -3 -6 -5
-21 -2 -33 2 -11 1 -21 -3 -21 -4 0 -9 -8 -9 -17 -4 -37 -10 -69 -16 -83 -4
-8 -8 -27 -11 -42 -3 -15 -8 -33 -12 -39 -4 -7 -8 -22 -10 -33 -9 -60 -17 -92
-24 -101 -4 -5 -11 -28 -15 -50 -4 -22 -9 -49 -10 -60 -2 -11 -7 -31 -10 -45
-6 -25 -13 -66 -18 -105 -1 -11 -5 -24 -8 -30 -4 -5 -5 -20 -4 -32 1 -13 -1
-23 -5 -23 -3 0 -6 -31 -5 -70 1 -38 -2 -70 -5 -70 -7 0 -6 -112 2 -125 3 -5
3 -18 -1 -27 -5 -15 -12 -14 -66 13 -32 17 -68 33 -80 35 -11 3 -31 8 -45 11
-14 4 -62 7 -106 7 -69 -1 -85 -4 -105 -22 -12 -12 -20 -22 -16 -22 4 0 3 -9
-3 -19 -8 -16 -5 -30 13 -63 21 -38 23 -49 18 -74 0 -4 -7 -1 -15 5 -14 12
-63 8 -77 -6 -5 -5 -10 -19 -11 -32 -2 -18 6 -30 32 -47 38 -26 72 -56 67 -61
-2 -1 -21 -5 -43 -8 -44 -5 -199 -69 -226 -93 -10 -8 -18 -12 -18 -8 0 9 -72
-45 -83 -61 -4 -7 -15 -13 -23 -13 -8 0 -13 -4 -9 -9 8 -13 -21 -27 -74 -35
-24 -4 -49 -10 -55 -13 -6 -4 -22 -8 -36 -8 -14 -1 -45 -8 -70 -15 -25 -7 -56
-13 -70 -13 -25 0 -184 106 -174 116 3 2 -7 7 -21 11 -14 4 -25 10 -25 15 0 5
-15 15 -32 22 -18 7 -39 19 -46 26 -7 7 -22 13 -32 13 -10 0 -22 5 -25 10 -15
24 -105 60 -140 55 -39 -5 -147 -64 -139 -77 3 -4 0 -8 -7 -8 -7 0 -10 -3 -6
-6 3 -3 -8 -27 -24 -52 -16 -25 -29 -52 -29 -59 0 -7 -5 -13 -11 -13 -5 0 -8
-4 -5 -8 3 -5 -4 -16 -16 -26 -16 -14 -30 -16 -67 -11 -25 4 -56 8 -68 9 -13
0 -23 4 -23 8 0 4 -34 6 -75 5 -41 0 -75 -5 -75 -9 0 -4 -4 -7 -8 -6 -11 4
-102 -45 -102 -54 0 -5 -9 -17 -20 -28 -12 -12 -18 -25 -15 -30 4 -6 2 -10 -3
-10 -5 0 -9 -6 -10 -12 -2 -23 -8 -43 -20 -65 -6 -11 -14 -41 -16 -65 -7 -64
-9 -70 -33 -98 -22 -24 -26 -33 -20 -46 1 -3 -9 -11 -21 -18 -20 -11 -35 -10
-88 5 -35 10 -64 16 -64 13 0 -2 -13 2 -30 11 -16 9 -30 13 -30 10 0 -3 -10 0
-22 7 -13 6 -54 13 -91 14 -37 1 -71 4 -74 8 -10 10 -43 7 -43 -4 0 -6 -3 -9
-7 -9 -27 4 -64 -3 -75 -15 -8 -7 -24 -17 -36 -20 -12 -4 -22 -11 -22 -16 0
-15 -34 -17 -64 -2 -15 7 -38 15 -50 16 -11 1 -43 12 -70 24 -26 12 -52 20
-56 17 -5 -3 -11 -1 -15 4 -3 5 -13 10 -23 9 -9 0 -32 3 -50 5 -35 6 -106 -14
-132 -38 -8 -7 -18 -14 -22 -14 -4 -1 -22 -15 -40 -32 -23 -22 -45 -33 -73
-35 -22 -2 -49 -5 -60 -7 -11 -2 -25 0 -31 5 -6 4 -24 9 -40 11 -17 2 -34 6
-39 9 -17 10 -235 15 -285 6 -66 -11 -132 -78 -135 -138 -1 -14 -4 -30 -7 -35
-3 -6 -5 -71 -4 -146 l1 -137 -85 -57 c-107 -72 -133 -103 -136 -164 -1 -25 1
-50 4 -56 4 -5 7 -16 8 -23 2 -8 6 -21 10 -30 4 -9 8 -24 8 -32 1 -8 5 -21 9
-27 5 -7 5 -13 1 -13 -3 0 -1 -7 6 -15 6 -8 9 -18 6 -24 -4 -5 0 -16 8 -24 8
-8 12 -17 9 -21 -4 -3 -1 -6 6 -6 7 0 9 -4 6 -10 -3 -5 -1 -10 5 -10 6 0 9 -4
5 -9 -3 -5 -1 -12 4 -15 9 -6 6 -33 -6 -66 -3 -8 -7 -21 -9 -28 -1 -8 -6 -21
-10 -30 -4 -9 -9 -33 -11 -52 -7 -68 -6 -296 1 -340 4 -25 9 -56 11 -70 2 -14
4 -25 5 -25 1 0 3 -13 5 -30 2 -16 6 -41 10 -55 4 -14 7 -31 7 -37 1 -7 5 -13
10 -13 5 0 6 -4 3 -10 -3 -5 -3 -10 2 -10 4 0 9 -12 10 -27 0 -15 6 -29 12
-31 6 -2 9 -7 6 -12 -6 -10 15 -70 25 -70 7 0 14 -23 26 -84 3 -11 8 -24 13
-30 11 -15 6 -94 -7 -128 -7 -16 -9 -28 -6 -28 4 0 1 -6 -5 -13 -6 -8 -12 -22
-14 -33 -1 -10 -6 -25 -10 -31 -5 -7 -5 -17 -2 -23 3 -5 2 -10 -3 -10 -5 0 -8
-32 -7 -72 2 -70 3 -72 42 -107 22 -20 53 -45 68 -56 15 -11 40 -32 56 -47 16
-14 29 -23 29 -20 1 4 7 -4 14 -18 10 -17 11 -30 4 -43 -5 -10 -12 -31 -14
-45 -3 -15 -11 -33 -17 -41 -7 -8 -11 -16 -9 -18 1 -1 1 -5 1 -8 -1 -3 -3 -9
-4 -15 -1 -5 -3 -11 -5 -12 -4 -6 -10 -44 -15 -91 -3 -31 0 -47 7 -47 6 0 8
-3 5 -7 -4 -3 -2 -12 4 -20 6 -7 8 -13 5 -13 -4 0 0 -10 8 -22 16 -22 54 -45
166 -99 36 -17 67 -35 71 -40 5 -9 3 -53 -6 -144 -8 -75 -9 -234 -1 -285 4
-25 9 -61 11 -80 5 -45 9 -62 18 -77 5 -7 6 -13 3 -13 -3 0 -1 -12 5 -27 6
-16 13 -37 15 -48 2 -11 8 -21 14 -23 5 -2 10 -12 10 -21 0 -10 8 -33 17 -52
10 -19 18 -41 20 -49 1 -8 11 -21 22 -29 12 -7 21 -20 21 -27 0 -8 5 -14 12
-14 6 0 9 -3 5 -6 -9 -9 74 -84 93 -84 10 0 23 -6 29 -14 14 -17 52 -9 97 20
35 23 78 64 67 64 -4 0 -3 4 3 8 14 9 49 74 46 84 -1 5 3 8 9 8 5 0 7 5 4 10
-3 6 -1 10 4 10 6 0 10 3 9 7 -1 5 3 18 10 29 6 12 8 24 5 28 -3 3 -1 6 6 6 7
0 9 5 6 10 -3 6 -1 10 4 10 6 0 11 4 11 10 0 5 20 46 44 90 25 44 42 80 39 80
-3 0 1 8 10 17 8 10 15 22 15 26 0 12 25 71 33 77 3 3 14 21 24 40 9 19 24 43
33 53 8 9 12 17 7 17 -4 0 4 9 18 20 33 26 62 14 71 -30 1 -3 5 -11 10 -18 4
-7 5 -16 2 -19 -3 -3 -1 -13 6 -20 9 -11 9 -16 -1 -22 -7 -5 -12 -11 -12 -15
3 -19 -2 -29 -30 -61 -17 -19 -28 -35 -24 -35 4 0 2 -7 -5 -15 -7 -8 -9 -15
-4 -15 5 0 -2 -7 -14 -16 -12 -8 -20 -20 -17 -25 4 -5 1 -9 -4 -9 -6 0 -11 -7
-11 -15 0 -8 -5 -15 -10 -15 -6 0 -9 -3 -8 -7 2 -11 -35 -86 -47 -95 -5 -4 -6
-8 -1 -8 5 0 3 -7 -4 -15 -7 -8 -9 -15 -6 -15 4 0 1 -10 -5 -22 -7 -13 -13
-39 -15 -58 -1 -19 -5 -45 -8 -58 -2 -12 -2 -22 2 -22 4 0 8 -9 9 -21 3 -37
64 -83 156 -119 55 -21 88 -39 88 -49 6 -60 3 -107 -6 -113 -5 -4 -10 -11 -10
-15 0 -4 -14 -27 -29 -51 -37 -54 -43 -121 -14 -151 10 -12 16 -21 12 -21 -4
0 1 -9 12 -20 31 -31 45 -50 37 -50 -4 0 1 -6 11 -13 16 -12 16 -14 -4 -40
-12 -15 -26 -27 -32 -27 -13 0 -118 -106 -118 -120 0 -5 -6 -10 -14 -10 -12 0
-17 -13 -32 -86 -5 -24 40 -87 73 -103 12 -5 28 -22 37 -38 30 -54 50 -98 48
-105 -1 -5 3 -8 9 -8 5 0 7 -5 4 -10 -4 -6 -1 -17 5 -25 7 -8 9 -15 5 -15 -4
0 -2 -6 4 -14 10 -11 5 -21 -24 -50 -20 -20 -41 -36 -47 -36 -6 0 -9 -2 -6 -5
3 -3 -8 -20 -23 -36 -16 -17 -29 -37 -29 -45 0 -8 -4 -14 -10 -14 -5 0 -10 -9
-10 -19 0 -11 -4 -22 -9 -26 -6 -3 -8 -21 -7 -40 3 -22 -1 -36 -11 -39 -8 -3
-11 -2 -8 3 3 5 1 12 -5 16 -6 4 -8 11 -5 16 4 5 0 9 -8 9 -14 0 -32 27 -29
43 1 4 -5 7 -13 7 -9 0 -21 12 -27 26 -8 17 -37 38 -82 61 l-71 36 -180 0
c-164 0 -370 -7 -370 -12 0 -8 -126 -1 -150 8 -28 11 -105 113 -105 139 0 6
-24 34 -52 63 -52 50 -64 80 -45 107 5 6 6 12 2 12 -4 0 0 11 9 25 9 14 13 25
9 25 -4 0 2 7 13 15 10 8 16 15 12 15 -4 0 3 10 15 23 12 13 32 34 44 48 12
13 41 42 65 64 24 22 43 43 43 48 0 4 5 11 11 15 34 22 38 90 8 123 -16 18
-133 78 -204 104 -19 8 -73 29 -119 49 -46 19 -86 34 -90 33 -3 0 -16 4 -28
11 -12 7 -26 11 -30 10 -4 -1 -28 8 -51 21 -24 12 -50 20 -58 17 -9 -3 -14 2
-14 14 0 11 -5 20 -11 20 -5 0 -8 4 -4 9 3 5 0 13 -6 16 -5 4 -8 13 -5 21 3 8
0 14 -6 14 -6 0 -8 3 -5 7 4 3 2 12 -5 20 -6 7 -8 16 -5 20 4 3 1 15 -5 27 -6
11 -13 30 -15 41 -3 26 -11 60 -13 60 -3 0 -11 39 -14 65 -2 14 -7 33 -11 42
-4 10 -8 36 -8 58 -1 22 -5 40 -8 40 -13 0 0 71 16 86 8 8 15 21 15 29 0 7 11
20 25 29 13 9 32 31 41 49 9 17 22 35 28 39 6 5 7 8 1 8 -5 0 -4 4 3 8 11 8
24 43 23 67 0 40 -24 71 -100 135 -49 40 -78 77 -83 105 -1 11 -7 23 -11 26
-4 3 -10 17 -12 30 -3 13 -7 35 -11 49 -3 14 -6 30 -7 35 -2 6 -6 16 -10 22
-5 7 -6 13 -3 13 2 0 0 15 -5 33 -6 17 -12 46 -14 62 -2 17 -7 44 -10 60 -4
17 -8 45 -9 62 0 18 -3 33 -6 33 -6 0 -8 27 -12 162 -2 43 -6 78 -11 78 -4 0
-4 12 -1 27 4 15 7 34 7 43 0 8 4 21 10 27 5 7 6 13 3 13 -4 0 2 9 13 21 11
12 17 27 14 34 -2 8 4 18 15 24 11 6 23 22 26 35 3 14 17 36 31 50 14 14 25
30 25 35 0 6 9 16 20 23 11 7 20 20 20 28 0 9 7 25 15 36 8 12 11 24 8 28 -3
3 -2 6 4 6 18 0 5 78 -22 132 -23 44 -143 161 -157 152 -7 -5 -9 -2 -6 8 4 10
-5 20 -28 31 -23 11 -34 24 -35 39 -1 13 -3 104 -4 203 -1 99 -4 180 -5 180
-1 0 -4 14 -6 30 -12 104 -15 133 -17 158 -1 15 -5 27 -9 27 -3 0 -5 7 -4 16
3 20 -35 95 -62 122 -18 18 -20 26 -12 47 5 14 7 25 5 25 -10 0 41 73 78 112
9 10 17 23 17 28 0 6 4 10 8 10 12 0 28 41 26 65 -1 11 -4 32 -5 48 -2 15 -6
27 -10 27 -3 0 -6 6 -6 13 -1 23 -8 42 -20 52 -20 18 -93 167 -93 192 0 13 11
36 25 51 14 15 25 32 25 39 0 7 5 13 12 13 6 0 9 3 5 6 -3 4 4 21 17 38 58 77
87 175 63 214 -5 6 -6 16 -2 21 6 11 -46 75 -85 105 -48 37 -127 128 -126 144
2 21 25 65 39 74 6 3 12 13 13 20 1 8 13 27 28 43 14 15 26 32 26 37 0 6 9 22
20 38 11 15 17 30 13 34 -3 3 -1 6 6 6 7 0 9 5 6 10 -3 6 -1 10 6 10 7 0 9 3
6 6 -3 4 -2 15 4 26 20 37 27 94 18 148 -2 14 -36 59 -75 100 -155 162 -159
168 -147 246 9 61 3 238 -8 259 -3 6 -5 33 -4 62 1 41 6 56 24 73 13 11 21 20
17 20 -4 0 5 12 19 28 14 15 31 39 38 55 6 15 15 27 18 27 6 0 24 41 27 63 1
4 16 35 34 70 25 48 32 76 34 127 2 60 12 131 19 138 2 2 26 9 54 17 43 11 52
11 62 -1 6 -8 18 -14 25 -14 8 0 14 -4 14 -9 0 -4 34 -36 76 -71 74 -62 157
-100 170 -79 3 6 11 8 17 6 13 -5 107 44 107 56 0 4 9 7 20 7 10 0 23 6 27 13
4 7 21 18 36 25 23 10 33 9 58 -4 17 -8 33 -22 36 -30 3 -7 11 -14 18 -14 6 0
16 -9 21 -19 14 -30 92 -109 133 -135 48 -31 94 -40 156 -32 17 3 37 5 45 5
18 1 186 95 206 116 7 7 10 15 7 19 -4 3 1 6 11 6 9 0 15 4 12 8 -8 13 56 32
89 27 17 -3 44 -7 60 -9 37 -5 100 -14 140 -21 17 -3 46 -7 65 -9 19 -2 46 -6
60 -10 14 -4 36 -9 50 -11 37 -5 69 -13 82 -21 7 -4 23 -9 36 -10 14 -2 32 -6
41 -10 17 -8 28 -10 72 -13 15 0 49 -19 77 -41 27 -22 56 -40 63 -40 7 0 10
-3 7 -6 -3 -3 14 -24 39 -47 26 -23 80 -75 122 -114 128 -122 192 -140 297
-84 71 38 122 82 160 142 16 24 37 53 47 64 22 24 52 77 49 87 -1 5 1 7 6 6 4
-1 19 2 33 6 45 13 64 14 83 4 17 -9 113 -19 191 -19 37 -1 89 8 134 20 25 8
40 7 60 -4 40 -23 64 -39 79 -52 7 -7 20 -13 28 -13 8 0 14 -4 14 -9 0 -13
159 -82 197 -86 19 -2 37 -6 40 -9 4 -3 12 -1 20 6 7 6 16 8 19 5 3 -3 28 8
55 24 28 16 54 29 59 29 9 0 26 39 22 53 -1 4 2 7 7 7 6 0 8 9 6 20 -2 11 0
20 5 20 5 0 7 7 3 15 -3 9 -6 32 -8 53 -1 20 -5 45 -9 54 -4 9 -9 22 -10 30
-1 7 -8 23 -14 36 -7 12 -11 22 -8 22 3 0 -1 12 -9 27 -12 23 -12 30 3 55 9
15 20 28 24 28 4 0 8 7 8 17 0 9 3 13 6 10 9 -8 44 31 44 48 0 7 7 16 16 19 9
4 14 9 11 13 -4 3 0 11 8 17 8 6 16 24 19 40 3 15 11 38 19 50 8 11 13 29 11
39 -1 9 3 17 9 17 5 0 7 3 4 6 -3 4 -1 16 5 28 7 11 11 25 10 30 -6 19 30 58
49 53 10 -3 19 0 19 6 0 6 3 7 6 4 13 -13 102 47 116 78 35 75 0 180 -92 277
l-57 59 1 118 2 118 52 48 c29 26 50 50 47 53 -3 3 0 12 7 19 14 17 18 53 6
53 -4 0 -8 6 -8 14 0 8 -7 16 -15 20 -8 3 -15 12 -15 21 0 8 -4 15 -10 15 -5
0 -32 21 -59 48 -35 33 -51 56 -53 77 -1 17 -5 35 -8 40 -8 14 0 185 10 205 1
3 2 9 1 14 -1 5 1 16 5 25 4 9 8 25 10 36 3 24 12 60 14 60 1 0 3 11 6 24 2
13 13 36 24 51 11 15 17 30 13 34 -3 3 -2 6 4 6 13 0 9 80 -6 108 -6 10 -7 22
-4 26 3 3 -1 6 -10 6 -8 0 -19 9 -22 20 -4 11 -22 37 -40 57 -33 36 -33 37
-17 67 9 17 17 33 17 36 2 16 32 50 43 50 7 0 11 3 9 8 -3 4 0 18 6 32 5 14
10 86 11 160 1 74 5 141 9 148 5 7 32 27 61 46 66 42 106 79 106 98 0 8 3 18
8 22 8 9 10 119 2 126 -3 3 -19 31 -34 63 -15 32 -38 68 -50 80 -33 33 -37 52
-15 76 11 12 16 21 12 21 -4 0 3 7 15 16 62 43 60 157 -5 225 -20 21 -25 26
-89 87 -25 23 -42 42 -37 42 4 0 1 5 -7 10 -13 7 -16 32 -15 139 0 72 -4 131
-8 131 -5 0 -6 4 -2 9 3 5 -10 25 -28 45 -31 32 -33 38 -20 56 8 11 11 20 8
20 -3 0 0 10 7 23 16 30 19 45 19 96 0 34 -5 49 -25 68 -14 12 -28 23 -31 23
-16 0 -164 94 -159 101 3 5 0 9 -7 9 -6 0 0 15 14 34 15 18 23 36 20 40 -4 3
1 6 9 6 9 0 18 8 21 18 4 9 16 29 27 43 48 58 24 100 -87 154 -43 21 -85 39
-93 40 -8 1 -29 9 -47 18 -18 10 -36 16 -40 15 -4 -1 -18 3 -31 10 -18 11 -20
16 -11 33 6 11 13 30 16 42 9 37 8 221 -2 242 -4 11 -9 22 -10 25 -17 50 -61
94 -108 109 -55 18 -117 7 -198 -35 -40 -21 -76 -41 -79 -44 -8 -10 -139 -90
-145 -90 -4 0 -13 -7 -21 -15 -17 -17 -39 -21 -29 -5 3 6 0 10 -7 10 -7 0 -29
13 -48 29 -68 55 -110 70 -185 65 -38 -2 -70 -6 -72 -8 -2 -2 -17 8 -32 23
-76 70 -138 86 -203 53 -32 -17 -39 -17 -49 -6 -6 8 -8 14 -3 14 5 0 3 4 -5 9
-7 5 -15 24 -17 42 -2 18 -9 38 -14 43 -6 6 -10 18 -10 28 0 10 -7 30 -16 43
-9 14 -13 25 -10 25 4 0 -1 11 -10 25 -9 14 -14 25 -10 25 3 0 -2 8 -13 19
-10 10 -20 22 -22 27 -8 19 -130 95 -151 94 -1 0 -23 -10 -48 -21z m4495
-3799 c-3 -6 1 -7 9 -4 10 4 18 -1 22 -10 5 -13 9 -14 20 -5 13 11 19 5 14
-16 -1 -5 2 -7 5 -3 4 4 20 1 35 -7 15 -8 30 -11 34 -8 3 4 6 1 6 -6 0 -7 5
-9 12 -5 8 5 9 2 4 -11 -5 -14 -4 -16 7 -7 11 9 18 7 34 -11 11 -12 30 -29 43
-37 12 -8 28 -21 36 -27 7 -7 21 -13 31 -14 16 0 16 -1 -2 -9 -17 -7 -17 -9
-2 -9 9 -1 17 -5 17 -11 0 -5 7 -10 15 -10 8 0 14 -3 13 -7 -4 -16 14 -53 23
-48 5 4 9 -1 9 -9 0 -9 5 -16 10 -16 6 0 10 -5 10 -11 0 -5 -6 -7 -12 -3 -7 4
-10 4 -6 0 3 -4 10 -8 15 -8 17 0 32 -20 26 -35 -4 -10 -2 -14 4 -10 7 4 10 0
9 -10 -2 -10 4 -21 13 -25 14 -6 13 -7 -2 -7 -17 -1 -17 -2 -3 -17 9 -8 14
-20 11 -25 -4 -5 -2 -9 4 -9 6 0 7 -7 4 -17 -4 -11 -3 -14 5 -9 16 10 15 -6 0
-23 -11 -11 -10 -12 1 -6 9 5 12 3 9 -6 -3 -8 2 -20 11 -27 9 -8 10 -11 4 -7
-19 9 -15 -16 5 -31 13 -11 14 -13 1 -9 -10 4 -16 0 -16 -9 0 -8 4 -13 9 -10
5 3 7 -6 4 -20 -3 -16 0 -26 7 -26 7 0 6 -4 -3 -10 -8 -5 -10 -10 -5 -10 6 0
10 -16 10 -35 -1 -19 1 -35 5 -35 9 0 6 -43 -4 -59 -6 -9 -5 -12 1 -8 6 4 10
-6 11 -24 0 -20 -3 -27 -11 -22 -7 3 -3 -3 7 -15 13 -15 15 -22 6 -22 -9 0 -9
-4 -2 -12 5 -7 6 -22 2 -33 -5 -13 -2 -27 9 -39 9 -11 10 -16 4 -12 -8 4 -13
2 -13 -6 0 -8 6 -20 13 -27 10 -11 10 -13 0 -7 -14 8 -18 -6 -6 -18 12 -11 12
-40 1 -53 -6 -8 -7 -13 -1 -13 11 0 11 -45 0 -56 -12 -12 -8 -26 6 -18 8 5 8
2 -2 -9 -10 -13 -10 -17 -1 -17 9 0 9 -4 -1 -17 -10 -11 -10 -14 -1 -9 6 4 12
2 12 -3 0 -6 -6 -11 -12 -11 -9 0 -8 -3 2 -10 12 -8 12 -10 -4 -16 -16 -6 -17
-8 -2 -16 9 -5 13 -14 9 -21 -10 -16 -11 -67 -1 -61 4 3 8 3 8 0 0 -2 3 -13 6
-23 4 -13 3 -14 -4 -5 -7 11 -10 11 -15 -2 -4 -9 -1 -16 6 -16 8 0 6 -4 -3
-10 -11 -7 -11 -10 -2 -10 8 0 10 -5 5 -12 -14 -24 -12 -40 4 -34 14 6 14 4 2
-10 -15 -19 -21 -47 -8 -38 13 8 11 -10 -3 -25 -11 -11 -10 -12 2 -6 13 8 13
7 1 -8 -12 -15 -11 -17 5 -18 18 0 18 -1 -1 -9 -11 -5 -14 -9 -6 -9 11 -1 11
-4 0 -18 -10 -11 -10 -14 -1 -9 6 4 12 2 12 -3 0 -6 -6 -11 -12 -11 -9 0 -9
-3 -3 -8 12 -8 13 -27 2 -38 -4 -4 1 -16 10 -26 15 -17 15 -18 1 -13 -12 5
-16 2 -13 -12 2 -10 4 -18 5 -18 1 0 3 -8 5 -18 2 -9 0 -15 -5 -12 -4 3 -10
-2 -14 -10 -3 -8 0 -17 6 -21 7 -4 8 -3 4 4 -4 7 -2 12 3 12 14 0 14 -17 0
-26 -8 -4 -7 -9 2 -15 12 -7 12 -9 0 -9 -7 0 -11 -6 -7 -15 3 -8 1 -15 -4 -15
-6 0 -10 -4 -10 -10 0 -5 8 -7 18 -3 14 5 15 3 5 -8 -14 -15 -18 -43 -5 -35 5
3 9 -2 9 -10 0 -8 -6 -13 -13 -10 -8 3 -11 -4 -7 -26 3 -20 1 -28 -6 -24 -7 4
-8 1 -5 -8 3 -9 11 -13 18 -9 6 4 3 -6 -8 -21 -10 -16 -12 -25 -5 -21 9 6 11
4 6 -7 -3 -9 0 -21 6 -27 9 -9 8 -11 -4 -6 -12 4 -15 -1 -15 -25 0 -23 3 -29
15 -25 10 4 9 0 -5 -16 -14 -16 -16 -23 -6 -26 10 -4 10 -8 1 -19 -6 -8 -7
-14 -2 -14 5 0 9 -9 9 -19 0 -11 -4 -17 -9 -14 -5 3 -7 0 -5 -8 3 -8 -2 -22
-11 -32 -11 -13 -12 -18 -2 -15 7 2 15 -7 17 -19 2 -13 -1 -23 -8 -23 -6 0 -3
-7 8 -15 13 -11 14 -14 4 -13 -9 2 -14 -3 -11 -12 8 -37 6 -68 -4 -63 -7 2
-12 -3 -12 -12 0 -11 6 -14 21 -9 17 4 18 3 6 -5 -8 -6 -16 -15 -16 -21 -1 -5
-3 -11 -4 -12 -4 -5 -10 -73 -10 -118 0 -33 -3 -41 -10 -30 -5 8 -10 11 -10 6
0 -5 8 -18 18 -29 9 -11 12 -17 6 -14 -7 4 -14 -2 -17 -14 -4 -16 -2 -19 11
-15 16 5 16 5 0 -6 -15 -11 -15 -13 -1 -23 13 -10 13 -14 3 -20 -9 -6 -11 -4
-5 6 5 8 4 10 0 6 -13 -11 -15 -37 -3 -37 6 0 3 -12 -7 -26 -9 -15 -12 -24 -7
-20 6 3 13 2 17 -4 3 -5 2 -10 -3 -10 -6 0 -13 -7 -16 -16 -6 -15 -4 -15 10
-3 15 12 16 11 9 -11 -5 -14 -8 -35 -7 -47 1 -16 -4 -23 -16 -24 -12 0 -9 -3
8 -10 l25 -10 -25 -20 c-14 -12 -20 -18 -13 -15 6 4 14 2 18 -4 3 -5 1 -10 -6
-10 -7 0 -9 -3 -6 -7 4 -3 -1 -12 -11 -19 -15 -12 -14 -12 8 -8 20 5 22 3 10
-5 -8 -6 -11 -11 -6 -11 5 0 3 -6 -3 -14 -9 -11 -9 -16 0 -21 8 -6 7 -10 -2
-16 -11 -7 -11 -9 -1 -9 10 0 10 -5 -2 -21 -15 -22 -11 -53 6 -43 5 3 4 -4 -4
-15 -11 -18 -11 -23 2 -31 12 -8 12 -10 1 -10 -8 0 -11 -7 -8 -20 3 -11 0 -23
-5 -27 -6 -3 -8 -1 -4 5 3 6 2 13 -3 16 -5 4 -8 -2 -6 -11 2 -10 4 -18 5 -18
9 0 3 -68 -6 -72 -7 -3 -10 -12 -7 -20 4 -10 2 -14 -4 -10 -5 3 -10 0 -10 -8
0 -8 4 -12 8 -10 4 3 10 -2 13 -11 3 -8 2 -12 -4 -9 -6 3 -10 3 -11 -2 0 -4
-2 -17 -4 -28 -2 -11 1 -23 8 -27 8 -5 5 -8 -8 -8 -11 0 -15 -4 -10 -8 13 -9
13 -27 1 -39 -5 -4 -6 -3 -2 4 3 6 2 14 -2 17 -12 7 -9 -57 3 -66 6 -5 5 -8
-2 -8 -9 0 -12 -13 -10 -39 2 -26 -1 -37 -8 -35 -7 3 -12 -2 -12 -10 0 -8 4
-13 9 -10 4 3 8 0 8 -5 0 -6 -6 -11 -12 -12 -9 0 -9 -2 1 -6 11 -5 11 -7 0
-14 -12 -7 -11 -9 1 -9 13 0 13 -1 0 -11 -12 -8 -12 -12 -2 -16 10 -4 9 -8 -4
-17 -14 -11 -15 -16 -4 -35 9 -17 9 -21 0 -16 -7 4 -11 1 -9 -6 3 -25 -1 -40
-10 -35 -4 3 -6 -6 -3 -21 3 -18 1 -24 -7 -19 -6 4 -11 2 -11 -3 0 -6 6 -11
13 -11 8 0 7 -4 -3 -10 -10 -6 -11 -10 -2 -10 6 0 12 -5 12 -11 0 -5 -4 -8 -9
-5 -5 3 -11 0 -14 -8 -4 -10 1 -12 16 -9 16 3 18 2 9 -5 -7 -5 -15 -21 -16
-36 -3 -23 -1 -25 13 -14 13 11 13 9 -2 -14 -9 -15 -17 -31 -17 -35 0 -4 5 -1
10 7 7 12 9 10 7 -7 0 -12 -4 -20 -8 -17 -4 2 -9 -8 -12 -21 -2 -14 0 -28 5
-31 5 -4 5 -10 0 -17 -5 -7 -8 -20 -7 -30 3 -16 1 -16 -13 -5 -14 11 -14 8 2
-16 10 -16 13 -25 7 -22 -11 7 -15 -6 -12 -33 2 -7 -2 -11 -7 -7 -5 3 -9 -1
-9 -9 0 -8 5 -11 11 -8 6 4 5 -1 -2 -10 -8 -9 -11 -21 -7 -27 3 -5 -1 -10 -10
-10 -9 0 -13 -5 -10 -10 4 -6 12 -8 18 -4 7 3 3 -2 -7 -10 -15 -12 -16 -16 -5
-16 12 0 12 -2 0 -9 -8 -5 -12 -19 -9 -35 4 -22 3 -24 -9 -14 -11 9 -13 8 -11
-3 2 -8 8 -17 13 -21 6 -5 5 -8 -2 -8 -7 0 -13 -12 -13 -26 0 -16 -4 -23 -12
-18 -6 4 -8 3 -4 -4 3 -6 2 -14 -4 -17 -8 -5 -7 -12 2 -23 11 -13 10 -15 -4
-9 -12 4 -15 2 -11 -8 3 -8 10 -12 17 -9 6 3 4 -1 -6 -8 -13 -11 -14 -18 -5
-33 10 -19 9 -19 -8 -5 -10 8 -16 10 -12 3 4 -6 3 -23 -3 -38 -6 -17 -6 -24 0
-20 15 9 -2 -28 -19 -43 -9 -8 -10 -11 -3 -7 21 11 13 -13 -10 -31 -15 -11
-17 -14 -6 -11 10 4 20 1 24 -5 4 -6 3 -8 -3 -5 -12 8 -39 -20 -30 -29 3 -4 0
-13 -8 -21 -11 -11 -12 -19 -3 -38 6 -14 15 -25 20 -25 5 0 6 -4 3 -10 -3 -5
0 -10 7 -11 9 0 10 -2 1 -5 -8 -4 -9 -13 -3 -30 5 -13 6 -24 1 -24 -5 0 -7 -9
-4 -20 3 -11 10 -20 15 -20 5 0 6 -5 3 -10 -4 -6 -1 -17 5 -25 7 -8 9 -15 5
-15 -4 0 -3 -6 2 -12 13 -17 23 -58 15 -58 -4 0 -16 -12 -26 -27 -13 -17 -14
-24 -5 -19 8 4 5 0 -6 -9 -11 -9 -21 -20 -21 -25 -1 -6 -3 -13 -4 -17 -1 -5
-2 -11 -1 -15 0 -5 -6 -8 -15 -8 -8 0 -13 -4 -9 -9 3 -5 1 -12 -4 -15 -5 -3
-7 -15 -4 -26 3 -11 1 -20 -4 -20 -13 0 -11 -43 2 -52 6 -5 6 -8 -1 -8 -8 0
-11 -28 -5 -47 1 -2 1 -6 0 -9 0 -4 5 -11 13 -15 7 -5 8 -9 2 -9 -6 0 -11 -7
-11 -15 0 -8 4 -12 9 -9 4 3 8 -5 8 -18 0 -40 3 -58 11 -58 9 0 5 -77 -6 -125
-4 -16 -7 -38 -7 -47 0 -10 -3 -18 -7 -18 -9 0 -35 -51 -33 -63 1 -4 -4 -10
-12 -13 -8 -3 -12 -12 -9 -20 3 -8 -1 -14 -8 -14 -7 0 -9 -3 -6 -7 4 -3 0 -14
-8 -23 -14 -15 -27 -71 -29 -117 0 -12 -4 -19 -8 -17 -4 3 -8 1 -8 -3 0 -5
-11 -10 -25 -11 -14 -1 -38 -8 -54 -17 -16 -8 -32 -11 -36 -7 -5 4 -5 2 -2 -4
3 -6 -6 -23 -21 -39 -15 -16 -26 -33 -25 -37 2 -5 -1 -8 -6 -8 -5 0 -8 -11 -6
-25 1 -14 -2 -28 -7 -31 -4 -3 -6 -10 -3 -15 4 -5 2 -9 -2 -9 -5 0 -7 -46 -6
-102 4 -135 6 -152 18 -160 6 -5 6 -8 -1 -8 -6 0 -11 -7 -11 -15 0 -8 5 -15
10 -15 5 0 7 -7 3 -15 -3 -8 0 -15 7 -16 9 0 9 -2 -1 -6 -6 -2 -10 -9 -6 -14
7 -11 16 -48 17 -71 1 -10 4 -18 8 -18 4 0 6 -11 4 -25 -1 -14 2 -25 6 -25 5
0 9 -9 9 -20 0 -11 5 -20 10 -20 6 0 10 -11 10 -24 0 -13 7 -27 16 -30 8 -3
13 -10 10 -15 -3 -4 14 -17 37 -27 23 -10 44 -21 47 -24 3 -3 12 -5 20 -5 9 0
15 -9 14 -22 -1 -13 2 -23 6 -23 5 0 7 -13 6 -30 -1 -16 2 -30 7 -30 4 0 5 -4
2 -10 -3 -6 -1 -10 4 -10 6 0 10 -3 10 -7 -3 -20 2 -34 10 -29 5 3 9 0 8 -7
-1 -29 4 -48 11 -44 4 3 13 -1 20 -9 7 -8 9 -14 5 -14 -4 0 0 -7 9 -14 10 -7
20 -26 24 -42 4 -24 -2 -37 -39 -76 -24 -27 -47 -45 -52 -40 -5 4 -5 2 -2 -5
4 -6 2 -17 -5 -25 -7 -7 -14 -20 -16 -28 -2 -8 -10 -21 -19 -27 -14 -11 -14
-13 -2 -13 9 0 10 -3 3 -8 -6 -4 -10 -15 -9 -24 2 -9 -3 -19 -10 -22 -8 -2
-11 -17 -9 -35 2 -17 0 -31 -4 -31 -10 0 -8 -62 2 -78 4 -8 5 -16 2 -19 -3 -3
-1 -12 5 -19 6 -8 9 -21 5 -29 -3 -8 -1 -15 5 -15 6 0 7 -5 4 -10 -4 -6 -12
-7 -18 -3 -7 4 -6 -1 2 -10 12 -16 10 -21 -19 -47 -18 -16 -37 -27 -42 -24 -5
3 -8 2 -7 -3 5 -27 -2 -33 -21 -23 -11 6 -20 7 -19 3 4 -22 -2 -43 -12 -43 -5
0 -7 5 -3 12 4 7 3 8 -5 4 -9 -6 -9 -11 0 -22 10 -12 9 -13 -5 -8 -12 5 -15 2
-9 -12 4 -11 3 -15 -4 -11 -6 4 -14 0 -17 -9 -4 -10 -2 -13 7 -8 9 5 9 4 0 -6
-6 -7 -9 -19 -6 -28 5 -11 3 -13 -8 -7 -10 7 -9 1 4 -18 15 -24 16 -28 3 -33
-12 -5 -13 -11 -5 -25 8 -15 6 -19 -8 -19 -17 -1 -17 -1 1 -11 14 -9 15 -13 6
-19 -15 -9 -20 -50 -7 -67 5 -7 3 -21 -4 -35 -11 -21 -11 -22 5 -9 14 12 16
12 10 -2 -3 -8 0 -26 7 -39 11 -21 11 -22 -4 -10 -13 11 -15 10 -10 -7 3 -12
10 -18 16 -14 6 4 8 0 4 -10 -4 -10 -1 -17 6 -18 7 0 3 -4 -8 -9 -19 -8 -19
-9 3 -9 20 -1 21 -3 11 -23 -10 -18 -9 -20 4 -15 11 4 14 2 11 -8 -3 -8 4 -24
15 -36 11 -13 18 -25 15 -28 -3 -3 -9 1 -14 9 -5 8 -11 12 -14 9 -3 -3 3 -15
14 -26 14 -15 16 -23 7 -26 -7 -3 -3 -6 8 -6 17 -1 17 -3 5 -11 -12 -7 -12
-10 -1 -10 7 0 11 -6 7 -15 -3 -8 -1 -15 5 -15 6 0 6 -6 0 -19 -8 -14 -7 -22
3 -30 7 -6 15 -9 17 -6 3 2 5 -10 6 -28 2 -33 10 -82 13 -82 3 0 7 -25 11 -67
2 -16 7 -28 12 -28 5 0 7 -6 4 -12 -2 -7 0 -21 5 -32 6 -12 6 -22 0 -28 -6 -6
-8 -17 -5 -24 3 -8 -6 -25 -20 -38 -19 -18 -23 -26 -14 -35 9 -9 8 -10 -7 -5
-15 6 -17 4 -10 -7 12 -20 14 -40 3 -33 -5 3 -6 10 -3 16 4 6 2 8 -4 5 -5 -4
-9 -15 -8 -25 2 -9 -2 -20 -8 -24 -8 -5 -7 -8 2 -8 7 0 10 -5 7 -10 -4 -6 -11
-7 -17 -4 -6 4 -6 -2 1 -15 10 -18 9 -21 -6 -21 -14 0 -15 -2 -4 -9 9 -6 10
-11 2 -15 -6 -4 -11 -13 -11 -19 0 -7 4 -6 10 3 5 8 10 10 10 4 0 -5 -5 -15
-11 -21 -5 -5 -11 -29 -12 -52 -1 -28 -6 -40 -14 -36 -7 2 -12 1 -12 -3 1 -4
0 -9 -1 -12 -9 -25 -6 -38 8 -34 10 3 4 -2 -11 -11 -21 -12 -26 -20 -18 -29 6
-7 8 -16 4 -20 -11 -10 -12 -36 -2 -36 5 0 8 -3 8 -7 -1 -5 -1 -19 0 -33 1
-20 3 -22 11 -10 8 13 10 13 10 -1 0 -9 7 -20 16 -23 8 -3 13 -10 10 -15 -4
-5 -1 -11 6 -13 7 -3 9 -11 3 -24 -4 -10 -9 -24 -11 -31 -1 -7 -17 -26 -35
-43 -19 -16 -30 -30 -26 -30 4 0 -1 -8 -10 -18 -10 -11 -21 -17 -24 -16 -3 2
-6 -2 -6 -9 -1 -22 -8 -42 -17 -49 -5 -3 -9 -20 -8 -37 0 -17 -2 -31 -6 -31
-4 0 -7 -16 -8 -35 0 -19 4 -35 9 -35 5 0 4 -7 -3 -15 -10 -12 -10 -18 0 -30
7 -8 10 -24 7 -35 -3 -11 -1 -20 5 -20 5 0 6 -5 3 -10 -3 -6 1 -10 10 -10 9 0
14 -4 10 -10 -3 -5 3 -18 15 -30 11 -11 20 -25 20 -31 0 -5 4 -8 9 -4 5 3 8
-8 7 -24 -2 -28 -26 -61 -44 -61 -5 0 -21 -11 -36 -25 -15 -14 -34 -25 -42
-25 -7 0 -14 -5 -14 -11 0 -5 -4 -8 -9 -4 -6 3 -15 -4 -21 -15 -6 -11 -16 -20
-22 -20 -14 0 -58 -47 -50 -54 3 -3 -2 -6 -11 -6 -9 0 -17 -3 -16 -8 2 -15
-14 -52 -23 -52 -5 0 -6 -4 -3 -10 3 -5 2 -10 -4 -10 -6 0 -8 -6 -5 -14 3 -8
0 -17 -5 -21 -6 -3 -9 -10 -6 -15 3 -4 -1 -23 -9 -41 -8 -19 -12 -47 -9 -63 4
-18 2 -27 -4 -23 -9 6 -9 -14 0 -113 1 -14 5 -29 8 -35 4 -5 7 -25 7 -44 0
-19 6 -37 13 -41 8 -6 8 -10 -2 -16 -8 -5 -15 -20 -17 -34 -1 -14 -3 -31 -4
-37 -1 -7 -5 -13 -10 -13 -5 0 -7 -4 -3 -9 3 -5 -4 -12 -15 -16 -11 -3 -20
-11 -20 -17 0 -5 -17 -26 -37 -46 -21 -20 -37 -40 -35 -44 1 -5 -9 -8 -23 -8
-14 0 -25 -5 -25 -10 0 -6 -11 -15 -25 -20 -14 -5 -28 -17 -31 -25 -4 -8 -12
-15 -18 -15 -7 0 -22 -9 -34 -21 -12 -11 -26 -18 -31 -15 -5 3 -12 -1 -15 -10
-3 -8 -11 -12 -17 -8 -7 4 -9 3 -6 -3 4 -6 -4 -18 -16 -26 l-23 -15 3 112 c5
202 9 261 23 286 15 28 20 180 6 180 -4 0 -6 6 -3 14 3 8 3 17 -1 21 -4 4 -8
19 -9 33 -2 33 -7 54 -14 67 -4 6 -6 22 -5 37 1 16 -2 28 -7 28 -4 0 -5 5 -1
11 3 6 8 27 10 47 2 20 10 40 19 45 8 4 13 12 10 17 -3 4 2 10 10 14 8 3 15
12 15 21 0 9 8 30 17 48 9 18 16 35 15 40 -1 4 4 23 12 42 8 19 13 35 10 35
-4 0 5 11 45 57 11 12 17 24 13 27 -3 3 1 6 8 6 7 0 11 3 7 6 -3 3 3 15 13 27
11 11 17 24 14 29 -3 4 0 8 6 8 6 0 8 5 5 10 -3 6 -1 10 4 10 6 0 11 9 11 19
0 11 5 23 10 26 6 4 7 11 4 17 -4 6 -1 13 5 17 6 4 14 21 17 37 3 16 8 43 13
59 4 17 7 42 6 57 -1 16 1 28 5 28 7 0 4 141 -3 170 -9 36 -31 69 -54 79 -26
12 -103 4 -103 -10 0 -13 -61 2 -81 20 -9 9 -29 26 -44 38 -24 20 -25 25 -11
38 8 8 18 15 23 15 4 0 19 10 33 23 14 12 38 32 54 45 16 12 26 22 22 22 -3 0
11 16 31 35 20 19 33 35 28 35 -6 0 -3 5 7 10 25 15 64 92 61 120 -3 23 -10
72 -12 78 -1 1 -1 5 0 9 0 3 -6 10 -15 15 -9 5 -16 14 -16 20 0 6 -12 22 -27
36 l-27 24 30 15 c41 22 92 78 100 110 4 16 10 33 14 38 11 16 4 183 -8 198
-7 8 -9 17 -5 20 3 4 0 7 -7 7 -7 0 -11 3 -7 6 6 6 -2 18 -38 57 -11 12 -20
25 -20 29 0 3 -3 9 -6 13 -8 7 13 55 24 55 5 0 5 5 2 10 -3 6 -1 10 5 10 6 0
8 4 5 10 -3 6 -2 10 3 10 9 0 25 37 23 53 -1 4 3 7 7 7 4 0 7 22 7 49 -1 39
-8 62 -35 103 -19 29 -37 55 -40 58 -12 8 -34 55 -32 63 1 5 -7 11 -18 14 -11
3 -18 9 -15 13 3 5 1 11 -5 15 -6 4 -8 11 -5 16 4 5 1 9 -5 9 -6 0 -9 4 -5 9
3 5 0 13 -6 16 -5 4 -8 13 -5 20 2 7 2 16 -2 19 -7 7 -13 31 -15 59 -1 9 -5
17 -10 17 -4 0 -7 8 -6 18 2 9 -3 28 -11 42 -8 14 -15 33 -17 43 -7 41 -12 62
-14 62 -11 0 -17 139 -7 153 6 6 7 12 4 12 -4 0 2 13 13 29 11 15 18 30 16 33
-3 3 3 25 14 49 20 47 30 75 31 87 1 4 9 15 17 25 9 9 12 17 8 17 -5 0 0 7 11
15 10 8 15 15 9 15 -5 0 -4 4 4 9 8 5 14 27 15 50 0 23 3 41 6 41 3 0 6 17 7
38 2 34 7 86 16 157 2 17 1 35 -2 40 -5 10 -10 50 -14 113 -1 17 -6 32 -12 32
-5 0 15 24 46 53 66 61 97 105 94 130 -2 9 0 17 4 17 4 0 7 10 6 23 -1 12 0
27 4 32 9 17 8 149 -2 163 -6 7 -7 15 -4 19 4 3 2 12 -3 18 -8 9 -4 23 11 49
11 20 18 36 14 36 -4 0 -3 6 2 13 16 19 6 104 -15 134 -18 26 -28 48 -31 66 0
4 -14 22 -30 40 -39 43 -81 105 -81 120 0 13 35 47 47 47 16 0 113 115 114
134 5 92 3 122 -9 157 -7 23 -11 47 -8 54 3 8 -1 19 -9 25 -12 10 -29 56 -23
62 1 2 -7 14 -19 28 -12 14 -31 36 -42 49 -12 13 -21 30 -21 38 0 7 -7 16 -15
19 -8 4 -15 11 -15 18 0 6 -8 19 -17 28 -30 28 -43 47 -43 62 0 8 -8 16 -17
18 -16 3 -16 4 0 18 83 70 187 200 161 200 -4 0 -2 6 3 13 10 14 10 74 -1 99
-4 9 -9 22 -10 30 -4 25 -47 109 -64 126 -9 10 -26 30 -36 46 l-19 30 25 21
c29 25 51 61 55 90 1 11 5 33 8 48 2 15 1 26 -3 23 -5 -3 -7 12 -5 32 1 20 -2
39 -8 43 -6 3 -11 12 -13 20 -1 8 -8 25 -16 39 -8 14 -13 28 -12 33 1 4 -5 7
-13 7 -8 0 -15 9 -15 21 0 11 -4 18 -8 15 -9 -5 -44 37 -55 67 -3 9 -10 17
-15 17 -4 0 -7 21 -7 48 1 26 -1 52 -4 57 -3 6 -7 30 -8 55 -4 69 -8 94 -17
108 -4 7 -9 24 -11 38 -1 13 -10 33 -20 44 -15 16 -15 22 -5 35 7 8 18 14 24
13 21 -3 68 26 81 51 12 26 5 70 -12 72 -4 0 -19 2 -32 5 -13 2 -38 0 -56 -5
-39 -10 -58 -1 -60 31 -2 23 12 57 28 69 4 3 9 16 10 27 1 12 6 22 11 22 5 0
6 3 3 7 -4 3 0 15 10 25 9 10 13 18 9 18 -3 0 0 13 9 30 8 16 15 32 16 35 0 2
6 23 14 46 8 22 14 43 13 47 -1 4 3 23 10 42 12 37 19 71 27 134 3 21 8 43 12
49 9 16 14 108 14 307 0 158 -5 325 -11 325 -1 0 -3 8 -5 19 -17 91 -91 125
-190 86 -28 -10 -45 -19 -40 -20 6 0 0 -6 -13 -13 -27 -16 -138 -124 -172
-168 -14 -18 -33 -41 -42 -51 -10 -10 -18 -21 -18 -24 0 -5 -49 -74 -61 -84
-3 -3 -11 -20 -18 -37 -8 -18 -18 -33 -23 -33 -5 0 -7 -4 -3 -9 3 -5 2 -12 -3
-14 -4 -3 -7 51 -7 119 0 68 2 124 5 124 3 0 6 10 7 23 3 35 11 92 13 95 1 1
4 7 5 12 1 6 4 11 5 13 1 1 3 13 4 27 2 14 8 34 14 46 6 11 9 29 8 40 -2 10 3
28 10 39 7 11 13 23 13 28 1 4 8 24 17 45 9 20 17 49 19 65 1 15 11 40 23 56
12 16 23 40 26 53 2 13 17 47 34 75 17 28 28 54 25 57 -4 3 -1 6 6 6 7 0 9 5
6 10 -3 6 -1 10 4 10 6 0 10 3 9 8 -3 11 24 62 33 62 5 0 21 22 36 48 16 27
43 67 62 89 18 23 33 44 32 47 0 3 61 68 137 145 143 145 214 224 221 244 2 7
20 31 40 54 54 63 81 100 81 112 0 6 4 11 9 11 5 0 12 8 16 19 5 16 16 31 55
78 5 7 10 16 10 21 0 5 11 22 24 37 14 16 23 32 20 37 -3 4 0 8 6 8 6 0 8 5 5
10 -3 6 -2 10 3 10 8 0 21 27 26 53 0 4 6 11 12 15 12 8 58 102 56 115 -1 4 3
7 10 7 6 0 8 3 5 6 -4 4 2 19 13 34 11 16 20 35 20 42 0 8 3 18 8 22 4 4 7 11
7 15 0 4 10 27 21 52 39 79 54 117 54 133 0 9 5 16 11 16 6 0 8 7 5 16 -4 9
-1 23 5 30 13 16 53 19 44 4z m5159 -2831 c-6 -11 75 -90 111 -109 16 -8 40
-25 53 -37 14 -13 28 -20 33 -17 5 3 9 0 9 -5 0 -6 7 -11 15 -11 8 0 15 -6 15
-12 0 -10 3 -9 9 1 7 10 11 9 23 -8 8 -11 18 -18 21 -14 4 3 7 -1 7 -11 0 -9
-4 -15 -9 -12 -4 3 -19 -3 -31 -14 -13 -11 -27 -20 -31 -20 -5 0 -6 -7 -3 -15
4 -10 0 -15 -15 -15 -12 0 -20 -4 -18 -9 1 -5 -9 -20 -23 -34 -36 -36 -50 -55
-50 -66 0 -5 -9 -16 -21 -24 -11 -8 -22 -23 -24 -33 -2 -11 -4 -20 -4 -21 -1
-2 -1 -5 -1 -8 0 -3 -7 -19 -15 -35 -16 -32 -45 -41 -45 -14 0 8 -4 13 -9 10
-5 -4 -8 2 -6 11 3 20 -20 66 -47 97 -10 11 -18 25 -18 32 0 6 -9 14 -21 17
-12 3 -18 10 -14 16 3 6 2 11 -4 11 -6 0 -19 9 -29 20 -11 11 -29 23 -42 25
-32 6 -35 12 -17 33 10 10 14 22 10 25 -3 4 4 7 17 7 13 0 21 3 17 6 -3 4 12
24 34 45 22 21 39 41 38 46 -1 4 2 19 8 33 6 14 11 29 11 34 0 5 6 12 14 17 7
5 14 12 14 16 5 29 17 50 29 50 8 0 12 -4 9 -8z m335 -2006 c6 -10 11 -15 11
-10 0 4 10 1 23 -8 13 -8 27 -12 30 -8 4 3 7 -1 7 -10 0 -9 -7 -17 -16 -17 -8
0 -31 -16 -49 -36 l-34 -36 -41 41 -40 40 22 13 c13 7 26 11 31 10 4 -1 7 3 7
8 0 6 7 10 16 10 8 0 12 5 9 10 -3 6 -2 10 4 10 5 0 15 -8 20 -17z m-5339 -63
c0 -5 -5 -10 -11 -10 -5 0 -7 5 -4 10 3 6 8 10 11 10 2 0 4 -4 4 -10z m-320
-3260 c0 -5 -5 -10 -11 -10 -5 0 -7 5 -4 10 3 6 8 10 11 10 2 0 4 -4 4 -10z"/>
<path d="M10760 13045 c0 -5 5 -17 10 -25 5 -8 10 -10 10 -5 0 6 -5 17 -10 25
-5 8 -10 11 -10 5z"/>
<path d="M10780 12740 c-9 -6 -10 -10 -3 -10 6 0 15 5 18 10 8 12 4 12 -15 0z"/>
<path d="M10137 10635 c-4 -8 -3 -16 1 -19 4 -3 9 4 9 15 2 23 -3 25 -10 4z"/>
<path d="M10116 10595 c-6 -17 12 -31 24 -19 5 5 2 14 -5 21 -10 10 -14 9 -19
-2z"/>
<path d="M15307 13158 c-9 -5 -21 -7 -26 -3 -5 3 -16 -2 -25 -10 -8 -9 -17
-11 -21 -5 -5 9 -25 -3 -64 -40 -9 -8 -22 -15 -28 -16 -26 -2 -29 -4 -30 -23
-1 -10 -13 -31 -27 -46 -14 -15 -26 -36 -26 -45 0 -9 -9 -27 -20 -40 -11 -12
-17 -27 -14 -31 3 -5 0 -9 -6 -9 -7 0 -10 -15 -7 -40 2 -22 1 -40 -3 -40 -4 0
-6 -13 -5 -30 1 -16 -1 -30 -6 -30 -4 0 -3 -13 2 -30 6 -16 16 -30 21 -30 6 0
5 -6 -2 -15 -10 -12 -10 -15 0 -15 8 0 10 -3 7 -7 -4 -3 3 -21 14 -40 11 -18
18 -33 14 -33 -16 0 63 -67 93 -79 17 -7 32 -17 32 -22 0 -5 12 -9 26 -9 14 0
34 -5 44 -10 12 -7 21 -7 25 0 4 6 13 5 26 -3 16 -10 21 -9 29 3 7 11 10 12
10 2 0 -10 14 -13 53 -10 28 2 55 6 58 11 6 8 42 18 70 20 10 1 15 7 11 16 -3
9 0 12 9 9 8 -3 20 1 27 9 8 7 17 11 22 8 5 -3 11 4 15 15 3 11 11 20 16 20 5
0 9 9 9 19 0 11 7 27 16 36 9 8 17 27 18 40 0 14 9 28 18 31 10 3 15 11 11 20
-3 7 -2 22 2 32 20 44 24 137 7 154 -6 6 -8 17 -5 26 4 9 2 13 -4 9 -5 -3 -9
3 -8 16 1 12 -3 27 -9 34 -33 37 -36 43 -26 43 7 0 -3 12 -22 27 -18 16 -42
36 -52 45 -11 10 -25 18 -32 18 -7 0 -14 4 -16 10 -1 5 -31 18 -65 28 -35 11
-60 15 -56 9 4 -6 1 -7 -7 -2 -20 12 -74 14 -93 3z"/>
</g>
</svg>
